<svg width="49" height="40" viewBox="0 0 49 40" fill="none" xmlns="http://www.w3.org/2000/svg">
<g opacity="0.6" clip-path="url(#clip0_2_5430)">
<path d="M7.70781 17.6001C10.3553 17.6001 12.5078 15.4476 12.5078 12.8001C12.5078 10.1526 10.3553 8.00007 7.70781 8.00007C5.06031 8.00007 2.90781 10.1526 2.90781 12.8001C2.90781 15.4476 5.06031 17.6001 7.70781 17.6001ZM41.3078 17.6001C43.9553 17.6001 46.1078 15.4476 46.1078 12.8001C46.1078 10.1526 43.9553 8.00007 41.3078 8.00007C38.6603 8.00007 36.5078 10.1526 36.5078 12.8001C36.5078 15.4476 38.6603 17.6001 41.3078 17.6001ZM43.7078 20.0001H38.9078C37.5878 20.0001 36.3953 20.5326 35.5253 21.3951C38.5478 23.0526 40.6928 26.0451 41.1578 29.6001H46.1078C47.4353 29.6001 48.5078 28.5276 48.5078 27.2001V24.8001C48.5078 22.1526 46.3553 20.0001 43.7078 20.0001ZM24.5078 20.0001C29.1503 20.0001 32.9078 16.2426 32.9078 11.6001C32.9078 6.95757 29.1503 3.20007 24.5078 3.20007C19.8653 3.20007 16.1078 6.95757 16.1078 11.6001C16.1078 16.2426 19.8653 20.0001 24.5078 20.0001ZM30.2678 22.4001H29.6453C28.0853 23.1501 26.3528 23.6001 24.5078 23.6001C22.6628 23.6001 20.9378 23.1501 19.3703 22.4001H18.7478C13.9778 22.4001 10.1078 26.2701 10.1078 31.0401V33.2001C10.1078 35.1876 11.7203 36.8001 13.7078 36.8001H35.3078C37.2953 36.8001 38.9078 35.1876 38.9078 33.2001V31.0401C38.9078 26.2701 35.0378 22.4001 30.2678 22.4001ZM13.4903 21.3951C12.6203 20.5326 11.4278 20.0001 10.1078 20.0001H5.30781C2.66031 20.0001 0.507812 22.1526 0.507812 24.8001V27.2001C0.507812 28.5276 1.58031 29.6001 2.90781 29.6001H7.85031C8.32281 26.0451 10.4678 23.0526 13.4903 21.3951Z" fill="url(#paint0_linear_2_5430)"/>
</g>
<defs>
<linearGradient id="paint0_linear_2_5430" x1="48.5078" y1="11.6" x2="1.70446" y2="11.6571" gradientUnits="userSpaceOnUse">
<stop stop-color="#E323FF"/>
<stop offset="1" stop-color="#7517F8"/>
</linearGradient>
<clipPath id="clip0_2_5430">
<rect width="48" height="38.4" fill="white" transform="translate(0.507812 0.800049)"/>
</clipPath>
</defs>
</svg>
