<svg width="49" height="48" viewBox="0 0 49 48" fill="none" xmlns="http://www.w3.org/2000/svg">
<g opacity="0.6" clip-path="url(#clip0_2_5439)">
<path d="M0.507812 7.5V39H48.5078V7.5H0.507812ZM7.36496 11.2059H41.6507C41.6507 12.1887 42.0119 13.1313 42.6549 13.8263C43.2979 14.5213 44.1699 14.9118 45.0792 14.9118V31.5882C44.1699 31.5882 43.2979 31.9787 42.6549 32.6737C42.0119 33.3687 41.6507 34.3113 41.6507 35.2941H7.36496C7.36496 34.3113 7.00373 33.3687 6.36075 32.6737C5.71777 31.9787 4.8457 31.5882 3.93638 31.5882V14.9118C4.8457 14.9118 5.71777 14.5213 6.36075 13.8263C7.00373 13.1313 7.36496 12.1887 7.36496 11.2059Z" fill="black"/>
<path d="M0.507812 7.5V39H48.5078V7.5H0.507812ZM7.36496 11.2059H41.6507C41.6507 12.1887 42.0119 13.1313 42.6549 13.8263C43.2979 14.5213 44.1699 14.9118 45.0792 14.9118V31.5882C44.1699 31.5882 43.2979 31.9787 42.6549 32.6737C42.0119 33.3687 41.6507 34.3113 41.6507 35.2941H7.36496C7.36496 34.3113 7.00373 33.3687 6.36075 32.6737C5.71777 31.9787 4.8457 31.5882 3.93638 31.5882V14.9118C4.8457 14.9118 5.71777 14.5213 6.36075 13.8263C7.00373 13.1313 7.36496 12.1887 7.36496 11.2059Z" fill="url(#paint0_linear_2_5439)"/>
<path fill-rule="evenodd" clip-rule="evenodd" d="M9.50781 13.5H39.5078C39.5078 14.2956 39.8239 15.0587 40.3865 15.6213C40.9491 16.1839 41.7122 16.5 42.5078 16.5V30C41.7122 30 40.9491 30.3161 40.3865 30.8787C39.8239 31.4413 39.5078 32.2044 39.5078 33H9.50781C9.50781 32.2044 9.19174 31.4413 8.62913 30.8787C8.06652 30.3161 7.30346 30 6.50781 30V16.5C7.30346 16.5 8.06652 16.1839 8.62913 15.6213C9.19174 15.0587 9.50781 14.2956 9.50781 13.5ZM18.5078 23.25C18.5078 19.524 21.1913 16.5 24.5078 16.5C27.8243 16.5 30.5078 19.524 30.5078 23.25C30.5078 26.976 27.8243 30 24.5078 30C21.1913 30 18.5078 26.976 18.5078 23.25ZM12.3965 21.1716C12.6696 21.0584 12.9622 21.0001 13.2578 21C13.8547 20.9998 14.4273 21.2367 14.8496 21.6587C15.2718 22.0807 15.5091 22.6531 15.5093 23.25C15.5095 23.8469 15.2726 24.4195 14.8506 24.8417C14.4287 25.264 13.8562 25.5013 13.2593 25.5015C12.9637 25.5016 12.671 25.4435 12.3979 25.3305C12.1248 25.2174 11.8766 25.0517 11.6676 24.8428C11.4585 24.6339 11.2926 24.3858 11.1794 24.1128C11.0662 23.8397 11.0079 23.5471 11.0078 23.2515C11.0077 22.9559 11.0658 22.6632 11.1789 22.3901C11.2919 22.117 11.4576 21.8688 11.6665 21.6598C11.8754 21.4507 12.1235 21.2848 12.3965 21.1716ZM34.8965 21.1716C35.1696 21.0584 35.4622 21.0001 35.7578 21C36.3547 20.9998 36.9273 21.2367 37.3496 21.6587C37.7718 22.0807 38.0091 22.6531 38.0093 23.25C38.0095 23.8469 37.7726 24.4195 37.3506 24.8417C36.9287 25.264 36.3562 25.5013 35.7593 25.5015C35.4637 25.5016 35.171 25.4435 34.8979 25.3305C34.6248 25.2174 34.3766 25.0517 34.1676 24.8428C33.9585 24.6339 33.7926 24.3858 33.6794 24.1128C33.5662 23.8397 33.5079 23.5471 33.5078 23.2515C33.5077 22.9559 33.5658 22.6632 33.6789 22.3901C33.7919 22.117 33.9576 21.8688 34.1665 21.6598C34.3754 21.4507 34.6235 21.2848 34.8965 21.1716Z" fill="black"/>
<path fill-rule="evenodd" clip-rule="evenodd" d="M9.50781 13.5H39.5078C39.5078 14.2956 39.8239 15.0587 40.3865 15.6213C40.9491 16.1839 41.7122 16.5 42.5078 16.5V30C41.7122 30 40.9491 30.3161 40.3865 30.8787C39.8239 31.4413 39.5078 32.2044 39.5078 33H9.50781C9.50781 32.2044 9.19174 31.4413 8.62913 30.8787C8.06652 30.3161 7.30346 30 6.50781 30V16.5C7.30346 16.5 8.06652 16.1839 8.62913 15.6213C9.19174 15.0587 9.50781 14.2956 9.50781 13.5ZM18.5078 23.25C18.5078 19.524 21.1913 16.5 24.5078 16.5C27.8243 16.5 30.5078 19.524 30.5078 23.25C30.5078 26.976 27.8243 30 24.5078 30C21.1913 30 18.5078 26.976 18.5078 23.25ZM12.3965 21.1716C12.6696 21.0584 12.9622 21.0001 13.2578 21C13.8547 20.9998 14.4273 21.2367 14.8496 21.6587C15.2718 22.0807 15.5091 22.6531 15.5093 23.25C15.5095 23.8469 15.2726 24.4195 14.8506 24.8417C14.4287 25.264 13.8562 25.5013 13.2593 25.5015C12.9637 25.5016 12.671 25.4435 12.3979 25.3305C12.1248 25.2174 11.8766 25.0517 11.6676 24.8428C11.4585 24.6339 11.2926 24.3858 11.1794 24.1128C11.0662 23.8397 11.0079 23.5471 11.0078 23.2515C11.0077 22.9559 11.0658 22.6632 11.1789 22.3901C11.2919 22.117 11.4576 21.8688 11.6665 21.6598C11.8754 21.4507 12.1235 21.2848 12.3965 21.1716ZM34.8965 21.1716C35.1696 21.0584 35.4622 21.0001 35.7578 21C36.3547 20.9998 36.9273 21.2367 37.3496 21.6587C37.7718 22.0807 38.0091 22.6531 38.0093 23.25C38.0095 23.8469 37.7726 24.4195 37.3506 24.8417C36.9287 25.264 36.3562 25.5013 35.7593 25.5015C35.4637 25.5016 35.171 25.4435 34.8979 25.3305C34.6248 25.2174 34.3766 25.0517 34.1676 24.8428C33.9585 24.6339 33.7926 24.3858 33.6794 24.1128C33.5662 23.8397 33.5079 23.5471 33.5078 23.2515C33.5077 22.9559 33.5658 22.6632 33.6789 22.3901C33.7919 22.117 33.9576 21.8688 34.1665 21.6598C34.3754 21.4507 34.6235 21.2848 34.8965 21.1716Z" fill="url(#paint1_linear_2_5439)"/>
<path d="M24.5078 19.5C26.1608 19.5 27.5078 21.1815 27.5078 23.25C27.5078 25.3185 26.1608 27 24.5078 27C22.8548 27 21.5078 25.3185 21.5078 23.25C21.5078 21.1815 22.8548 19.5 24.5078 19.5Z" fill="black"/>
<path d="M24.5078 19.5C26.1608 19.5 27.5078 21.1815 27.5078 23.25C27.5078 25.3185 26.1608 27 24.5078 27C22.8548 27 21.5078 25.3185 21.5078 23.25C21.5078 21.1815 22.8548 19.5 24.5078 19.5Z" fill="url(#paint2_linear_2_5439)"/>
</g>
<defs>
<linearGradient id="paint0_linear_2_5439" x1="48.5078" y1="15.3749" x2="1.70447" y2="15.4359" gradientUnits="userSpaceOnUse">
<stop stop-color="#E323FF"/>
<stop offset="1" stop-color="#7517F8"/>
</linearGradient>
<linearGradient id="paint1_linear_2_5439" x1="48.5078" y1="15.3749" x2="1.70447" y2="15.4359" gradientUnits="userSpaceOnUse">
<stop stop-color="#E323FF"/>
<stop offset="1" stop-color="#7517F8"/>
</linearGradient>
<linearGradient id="paint2_linear_2_5439" x1="48.5078" y1="15.3749" x2="1.70447" y2="15.4359" gradientUnits="userSpaceOnUse">
<stop stop-color="#E323FF"/>
<stop offset="1" stop-color="#7517F8"/>
</linearGradient>
<clipPath id="clip0_2_5439">
<rect width="48" height="48" fill="white" transform="translate(0.507812)"/>
</clipPath>
</defs>
</svg>
