<svg width="37" height="37" viewBox="0 0 37 37" fill="none" xmlns="http://www.w3.org/2000/svg">
<g opacity="0.6">
<path d="M30.5078 11.229V8.229C30.5078 6.5745 29.1623 5.229 27.5078 5.229H8.00781C5.52681 5.229 3.50781 7.248 3.50781 9.729V27.729C3.50781 31.0305 6.19881 32.229 8.00781 32.229H30.5078C32.1623 32.229 33.5078 30.8835 33.5078 29.229V14.229C33.5078 12.5745 32.1623 11.229 30.5078 11.229ZM27.5078 24.729H24.5078V18.729H27.5078V24.729ZM8.00781 11.229C7.62159 11.2117 7.25692 11.0461 6.98973 10.7667C6.72253 10.4873 6.57341 10.1156 6.57341 9.729C6.57341 9.3424 6.72253 8.97069 6.98973 8.69128C7.25692 8.41186 7.62159 8.24628 8.00781 8.229H27.5078V11.229H8.00781Z" fill="url(#paint0_linear_2_5455)"/>
</g>
<defs>
<linearGradient id="paint0_linear_2_5455" x1="33.5078" y1="11.9789" x2="4.2557" y2="12.0067" gradientUnits="userSpaceOnUse">
<stop stop-color="#E323FF"/>
<stop offset="1" stop-color="#7517F8"/>
</linearGradient>
</defs>
</svg>
