<svg width="49" height="44" viewBox="0 0 49 44" fill="none" xmlns="http://www.w3.org/2000/svg">
<path d="M33.8411 8.66675L33.7661 8.72175C33.3995 8.68508 32.9578 8.66675 32.5078 8.66675H21.8411C20.4661 8.66675 19.1328 8.84008 17.8578 9.16675C17.8495 9.00008 17.8411 8.83508 17.8411 8.66675C17.8411 4.24841 21.3495 0.666748 25.8411 0.666748C30.2578 0.666748 33.8411 4.24841 33.8411 8.66675ZM32.5078 11.3334C32.7995 11.3334 33.0161 11.3417 33.3745 11.3584C33.7328 11.3834 34.0828 11.4167 34.4245 11.4667C35.8911 9.75842 38.0745 8.66675 40.5078 8.66675H43.1745L41.6078 14.9251C42.9328 16.1584 43.9995 17.6584 44.7328 19.3334H45.8411C47.3161 19.3334 48.5078 20.5251 48.5078 22.0001V30.0001C48.5078 31.4751 47.3161 32.6667 45.8411 32.6667H43.1745C42.4161 33.6751 41.5161 34.5751 40.5078 35.3334V40.6667C40.5078 42.1418 39.3161 43.3334 37.8411 43.3334H35.1745C33.6995 43.3334 32.5078 42.1418 32.5078 40.6667V38.0001H21.8411V40.6667C21.8411 42.1418 20.6495 43.3334 19.1745 43.3334H16.5078C15.0328 43.3334 13.8411 42.1418 13.8411 40.6667V35.3334C10.9328 33.1501 8.94948 29.8167 8.57365 26.0001H6.17448C3.04448 26.0001 0.507812 23.4667 0.507812 20.3334C0.507812 17.2001 3.04448 14.6667 6.17448 14.6667H6.50781C7.61198 14.6667 8.50781 15.5584 8.50781 16.6667C8.50781 17.7751 7.61198 18.6667 6.50781 18.6667H6.17448C5.25365 18.6667 4.50781 19.3417 4.50781 20.3334C4.50781 21.2501 5.25365 22.0001 6.17448 22.0001H8.77448C9.78281 17.0167 13.5828 13.0417 18.4661 11.7667C19.5411 11.4834 20.5995 11.3334 21.8411 11.3334H32.5078ZM35.8411 20.6667C34.7328 20.6667 33.8411 21.5584 33.8411 22.6667C33.8411 23.7751 34.7328 24.6667 35.8411 24.6667C36.9495 24.6667 37.8411 23.7751 37.8411 22.6667C37.8411 21.5584 36.9495 20.6667 35.8411 20.6667Z" fill="url(#paint0_linear_2_5448)"/>
<defs>
<linearGradient id="paint0_linear_2_5448" x1="48.5078" y1="11.3333" x2="1.70444" y2="11.3783" gradientUnits="userSpaceOnUse">
<stop stop-color="#E323FF"/>
<stop offset="1" stop-color="#7517F8"/>
</linearGradient>
</defs>
</svg>
