<svg width="37" height="37" viewBox="0 0 37 37" fill="none" xmlns="http://www.w3.org/2000/svg">
<g opacity="0.6">
<path fill-rule="evenodd" clip-rule="evenodd" d="M12.5078 6.729H24.5078V3.729H27.5078V6.729H29.0078C29.8035 6.729 30.5665 7.04507 31.1291 7.60768C31.6917 8.17029 32.0078 8.93335 32.0078 9.729V30.729C32.0078 31.5247 31.6917 32.2877 31.1291 32.8503C30.5665 33.4129 29.8035 33.729 29.0078 33.729H8.00781C7.21216 33.729 6.4491 33.4129 5.88649 32.8503C5.32388 32.2877 5.00781 31.5247 5.00781 30.729V9.729C5.00781 8.93335 5.32388 8.17029 5.88649 7.60768C6.4491 7.04507 7.21216 6.729 8.00781 6.729H9.50781V3.729H12.5078V6.729ZM8.00781 12.729V30.729H29.0078V12.729H8.00781ZM11.0078 17.229H14.0078V20.229H11.0078V17.229ZM17.0078 17.229H20.0078V20.229H17.0078V17.229ZM23.0078 17.229H26.0078V20.229H23.0078V17.229ZM23.0078 23.229H26.0078V26.229H23.0078V23.229ZM17.0078 23.229H20.0078V26.229H17.0078V23.229ZM11.0078 23.229H14.0078V26.229H11.0078V23.229Z" fill="black"/>
<path fill-rule="evenodd" clip-rule="evenodd" d="M12.5078 6.729H24.5078V3.729H27.5078V6.729H29.0078C29.8035 6.729 30.5665 7.04507 31.1291 7.60768C31.6917 8.17029 32.0078 8.93335 32.0078 9.729V30.729C32.0078 31.5247 31.6917 32.2877 31.1291 32.8503C30.5665 33.4129 29.8035 33.729 29.0078 33.729H8.00781C7.21216 33.729 6.4491 33.4129 5.88649 32.8503C5.32388 32.2877 5.00781 31.5247 5.00781 30.729V9.729C5.00781 8.93335 5.32388 8.17029 5.88649 7.60768C6.4491 7.04507 7.21216 6.729 8.00781 6.729H9.50781V3.729H12.5078V6.729ZM8.00781 12.729V30.729H29.0078V12.729H8.00781ZM11.0078 17.229H14.0078V20.229H11.0078V17.229ZM17.0078 17.229H20.0078V20.229H17.0078V17.229ZM23.0078 17.229H26.0078V20.229H23.0078V17.229ZM23.0078 23.229H26.0078V26.229H23.0078V23.229ZM17.0078 23.229H20.0078V26.229H17.0078V23.229ZM11.0078 23.229H14.0078V26.229H11.0078V23.229Z" fill="url(#paint0_linear_2_5471)"/>
</g>
<defs>
<linearGradient id="paint0_linear_2_5471" x1="32.0078" y1="11.2289" x2="5.68091" y2="11.2492" gradientUnits="userSpaceOnUse">
<stop stop-color="#E323FF"/>
<stop offset="1" stop-color="#7517F8"/>
</linearGradient>
</defs>
</svg>
