<svg width="46" height="45" viewBox="0 0 46 45" fill="none" xmlns="http://www.w3.org/2000/svg">
<g clip-path="url(#clip0_2_4964)">
<path d="M35.8847 7.85786V35.2455C35.8847 35.3002 35.8839 35.3549 35.881 35.4095C35.7953 37.2851 34.247 38.7807 32.3485 38.7807H12.4697C10.5166 38.7807 8.93359 37.1976 8.93359 35.2455V3.5361C8.93359 1.85739 10.1029 0.452022 11.6714 0.0901758C11.9284 0.0310254 12.1954 0 12.4697 0H28.2601C28.797 0 29.321 0.122168 29.7958 0.351826C30.751 0.811582 31.0201 1.39263 32.7368 3.14789C34.7117 5.29233 35.1833 5.51215 35.5857 6.44071C35.7817 6.88359 35.8847 7.36479 35.8847 7.85786Z" fill="#FFC477"/>
<path d="M35.8848 7.85786V35.2455C35.8848 35.3002 35.8839 35.3549 35.8811 35.4096C35.6241 35.4688 35.3571 35.4998 35.0827 35.4998H15.2038C13.2507 35.4998 11.6677 33.9167 11.6677 31.9646V0.255147C11.6677 0.199512 11.6686 0.144844 11.6713 0.0901758C11.9284 0.0310254 12.1954 0 12.4697 0H28.2602C28.797 0 29.321 0.122168 29.7958 0.351826C30.1858 0.539561 30.5422 0.800244 30.8439 1.12289L32.7368 3.14798L34.904 5.41547C35.1929 5.71711 35.4225 6.06437 35.5857 6.4408C35.7818 6.88359 35.8848 7.3648 35.8848 7.85786Z" fill="#FFDAAA"/>
<path d="M44.9566 20.1221V40.0028C44.9566 41.1083 44.5975 42.1309 43.9888 42.9584C43.0801 44.1961 41.6137 44.9999 39.9596 44.9999H26.9743C24.2146 44.9999 21.9773 42.7625 21.9773 40.0029V20.1221C21.9773 18.0597 23.2277 16.2888 25.0113 15.526C25.6137 15.2681 26.2772 15.125 26.9744 15.125H39.9596C42.7202 15.1251 44.9566 17.3625 44.9566 20.1221Z" fill="#4CBA68"/>
<path d="M44.9567 20.1221V40.0028C44.9567 41.1083 44.5976 42.1309 43.9888 42.9584C43.3864 43.2163 42.7229 43.3594 42.0257 43.3594H29.0405C26.2808 43.3594 24.0435 41.122 24.0435 38.3624V18.4816C24.0435 17.3761 24.4026 16.3535 25.0113 15.526C25.6137 15.2681 26.2772 15.125 26.9744 15.125H39.9597C42.7202 15.1251 44.9567 17.3625 44.9567 20.1221Z" fill="#7CCC92"/>
<path d="M35.3817 33.1931V35.528C35.3817 35.9409 35.0471 36.2754 34.6352 36.2754H32.2993C31.8865 36.2754 31.552 35.9409 31.552 35.528V33.1931C31.552 32.7803 31.8865 32.4458 32.2993 32.4458H34.6352C35.0472 32.4458 35.3817 32.7803 35.3817 33.1931Z" fill="#2C733F"/>
<path d="M41.5226 19.6538V22.1555C41.5226 23.045 40.8017 23.7668 39.9113 23.7668H27.0227C26.1331 23.7668 25.4114 23.045 25.4114 22.1555V19.6538C25.4114 18.7642 26.1332 18.0425 27.0227 18.0425H39.9113C40.8017 18.0425 41.5226 18.7643 41.5226 19.6538Z" fill="#1E81CE"/>
<path d="M41.5224 19.6538V22.1555C41.5224 23.045 40.8015 23.7668 39.9111 23.7668H29.7566C28.867 23.7668 28.1453 23.045 28.1453 22.1555V19.6538C28.1453 18.7642 28.8671 18.0425 29.7566 18.0425H39.9111C40.8015 18.0425 41.5224 18.7643 41.5224 19.6538Z" fill="#3D9AE2"/>
<path d="M29.2417 33.1931V35.528C29.2417 35.9409 28.9072 36.2754 28.4943 36.2754H26.1585C25.7465 36.2754 25.4111 35.9409 25.4111 35.528V33.1931C25.4111 32.7803 25.7465 32.4458 26.1585 32.4458H28.4943C28.9072 32.4458 29.2417 32.7803 29.2417 33.1931Z" fill="#2C733F"/>
<path d="M35.3817 27.0869V29.4218C35.3817 29.8347 35.0471 30.1692 34.6352 30.1692H32.2993C31.8865 30.1692 31.552 29.8347 31.552 29.4218V27.0869C31.552 26.6741 31.8865 26.3396 32.2993 26.3396H34.6352C35.0472 26.3396 35.3817 26.6741 35.3817 27.0869Z" fill="#2C733F"/>
<path d="M41.5964 27.0869V29.4218C41.5964 29.8347 41.2619 30.1692 40.8491 30.1692H38.5142C38.1014 30.1692 37.7668 29.8347 37.7668 29.4218V27.0869C37.7668 26.6741 38.1014 26.3396 38.5142 26.3396H40.8491C41.262 26.3396 41.5964 26.6741 41.5964 27.0869Z" fill="#EE8700"/>
<path d="M29.2417 27.0869V29.4218C29.2417 29.8347 28.9072 30.1692 28.4943 30.1692H26.1585C25.7465 30.1692 25.4111 29.8347 25.4111 29.4218V27.0869C25.4111 26.6741 25.7465 26.3396 26.1585 26.3396H28.4943C28.9072 26.3396 29.2417 26.6741 29.2417 27.0869Z" fill="#2C733F"/>
<path d="M35.3817 38.9996V41.3355C35.3817 41.7483 35.0471 42.0828 34.6352 42.0828H32.2993C31.8865 42.0828 31.552 41.7483 31.552 41.3355V38.9996C31.552 38.5877 31.8865 38.2532 32.2993 38.2532H34.6352C35.0472 38.2532 35.3817 38.5877 35.3817 38.9996Z" fill="#2C733F"/>
<path d="M29.2417 38.9996V41.3355C29.2417 41.7483 28.9072 42.0828 28.4943 42.0828H26.1585C25.7465 42.0828 25.4111 41.7483 25.4111 41.3355V38.9996C25.4111 38.5877 25.7465 38.2532 26.1585 38.2532H28.4943C28.9072 38.2532 29.2417 38.5877 29.2417 38.9996Z" fill="#2C733F"/>
<path d="M41.5963 33.5559V40.8076C41.5963 41.5122 41.0258 42.0827 40.3223 42.0827H39.0409C38.3373 42.0827 37.7668 41.5122 37.7668 40.8076V33.5559C37.7668 32.9425 38.2645 32.4458 38.8769 32.4458H40.4864C41.0997 32.4458 41.5963 32.9426 41.5963 33.5559Z" fill="#EE8700"/>
<path d="M35.3817 33.1931V33.8876C35.3817 34.3004 35.0471 34.6349 34.6352 34.6349H32.2993C31.8865 34.6349 31.552 34.3004 31.552 33.8876V33.1931C31.552 32.7803 31.8865 32.4458 32.2993 32.4458H34.6352C35.0472 32.4458 35.3817 32.7803 35.3817 33.1931Z" fill="#317F46"/>
<path d="M29.2417 33.1931V33.8876C29.2417 34.3004 28.9072 34.6349 28.4943 34.6349H26.1585C25.7465 34.6349 25.4111 34.3004 25.4111 33.8876V33.1931C25.4111 32.7803 25.7465 32.4458 26.1585 32.4458H28.4943C28.9072 32.4458 29.2417 32.7803 29.2417 33.1931Z" fill="#317F46"/>
<path d="M35.3817 27.0869V27.7814C35.3817 28.1942 35.0471 28.5287 34.6352 28.5287H32.2993C31.8865 28.5287 31.552 28.1942 31.552 27.7814V27.0869C31.552 26.6741 31.8865 26.3396 32.2993 26.3396H34.6352C35.0472 26.3396 35.3817 26.6741 35.3817 27.0869Z" fill="#317F46"/>
<path d="M41.5964 27.0869V27.7814C41.5964 28.1942 41.2619 28.5287 40.8491 28.5287H38.5142C38.1014 28.5287 37.7668 28.1942 37.7668 27.7814V27.0869C37.7668 26.6741 38.1014 26.3396 38.5142 26.3396H40.8491C41.262 26.3396 41.5964 26.6741 41.5964 27.0869Z" fill="#FF9811"/>
<path d="M29.2417 27.0869V27.7814C29.2417 28.1942 28.9072 28.5287 28.4943 28.5287H26.1585C25.7465 28.5287 25.4111 28.1942 25.4111 27.7814V27.0869C25.4111 26.6741 25.7465 26.3396 26.1585 26.3396H28.4943C28.9072 26.3396 29.2417 26.6741 29.2417 27.0869Z" fill="#317F46"/>
<path d="M35.3817 38.9996V39.695C35.3817 40.1078 35.0471 40.4424 34.6352 40.4424H32.2993C31.8865 40.4424 31.552 40.1078 31.552 39.695V38.9996C31.552 38.5877 31.8865 38.2532 32.2993 38.2532H34.6352C35.0472 38.2532 35.3817 38.5877 35.3817 38.9996Z" fill="#317F46"/>
<path d="M29.2417 38.9996V39.695C29.2417 40.1078 28.9072 40.4424 28.4943 40.4424H26.1585C25.7465 40.4424 25.4111 40.1078 25.4111 39.695V38.9996C25.4111 38.5877 25.7465 38.2532 26.1585 38.2532H28.4943C28.9072 38.2532 29.2417 38.5877 29.2417 38.9996Z" fill="#317F46"/>
<path d="M41.5963 33.5559V39.1671C41.5963 39.8717 41.0258 40.4422 40.3223 40.4422H39.0409C38.3373 40.4422 37.7668 39.8717 37.7668 39.1671V33.5559C37.7668 32.9425 38.2645 32.4458 38.8769 32.4458H40.4864C41.0997 32.4458 41.5963 32.9426 41.5963 33.5559Z" fill="#FF9811"/>
<path d="M35.5861 6.44061H31.1551C30.4043 6.44061 29.7957 5.83197 29.7957 5.0812V0.351807C30.1859 0.539453 30.5423 0.800049 30.8437 1.12234L32.7374 3.14761L34.9043 5.41545C35.1928 5.71692 35.4224 6.06426 35.5861 6.44061Z" fill="#FFB655"/>
<path d="M16.9219 19.1258C16.0884 18.8196 15.4864 18.5984 15.4864 17.8263C15.4864 17.1226 15.9537 16.7658 16.8754 16.7658C17.4948 16.7658 17.8441 16.9455 18.0757 17.0646C18.2132 17.1353 18.3319 17.1964 18.4619 17.1964C18.837 17.1964 19.0446 16.7983 19.0446 16.523C19.0446 15.9536 18.1157 15.6712 17.2853 15.5968V15.0833C17.2853 14.7261 16.9948 14.4355 16.6376 14.4355C16.2804 14.4355 15.9898 14.7261 15.9898 15.0833V15.6784C14.8545 15.948 14.2306 16.7322 14.2306 17.8941C14.2306 19.485 15.4018 19.9251 16.3431 20.279C17.2647 20.6252 17.9927 20.8988 17.9927 21.951C17.9927 22.82 17.5101 23.2607 16.5583 23.2607C15.6963 23.2607 15.3528 22.8905 15.1021 22.6203C14.9527 22.4592 14.8238 22.3201 14.6208 22.3201C14.2917 22.3201 14.0266 22.6885 14.0266 22.9935C14.0266 23.5321 14.8288 24.24 15.9899 24.4239V24.92C15.9899 25.2772 16.2805 25.5678 16.6377 25.5678C16.9949 25.5678 17.2854 25.2772 17.2854 24.92V24.4106C18.5343 24.1756 19.2487 23.2584 19.2487 21.883C19.2485 19.9807 17.9584 19.5067 16.9219 19.1258Z" fill="#4E901E"/>
<path d="M28.9731 9.97911H30.69C31.0675 9.97911 31.3735 9.67316 31.3735 9.29559C31.3735 8.91801 31.0675 8.61206 30.69 8.61206H28.9731C28.5956 8.61206 28.2896 8.91801 28.2896 9.29559C28.2896 9.67316 28.5956 9.97911 28.9731 9.97911Z" fill="#4E901E"/>
<path d="M14.1176 9.97911H26.2389C26.6164 9.97911 26.9224 9.67316 26.9224 9.29559C26.9224 8.91801 26.6164 8.61206 26.2389 8.61206H14.1176C13.7401 8.61206 13.4341 8.91801 13.4341 9.29559C13.4341 9.67316 13.7401 9.97911 14.1176 9.97911Z" fill="#4E901E"/>
<path d="M16.2903 13.3719C16.6678 13.3719 16.9738 13.066 16.9738 12.6884C16.9738 12.3108 16.6678 12.0049 16.2903 12.0049H14.1176C13.7401 12.0049 13.4341 12.3108 13.4341 12.6884C13.4341 13.066 13.7401 13.3719 14.1176 13.3719H16.2903Z" fill="#4E901E"/>
<path d="M30.6899 12.0049H19.0243C18.6469 12.0049 18.3408 12.3108 18.3408 12.6884C18.3408 13.066 18.6469 13.3719 19.0243 13.3719H30.6899C31.0674 13.3719 31.3734 13.066 31.3734 12.6884C31.3734 12.3108 31.0674 12.0049 30.6899 12.0049Z" fill="#4E901E"/>
<path d="M19.6449 42.851C19.6449 43.3276 19.4499 43.7596 19.1364 44.0741C18.822 44.3876 18.3899 44.5826 17.9133 44.5826H7.30486C6.35248 44.5826 5.57324 43.8034 5.57324 42.851C5.57324 42.3744 5.76827 41.9424 6.08178 41.6279C6.39616 41.3144 6.82823 41.1194 7.30486 41.1194H17.9133C18.8657 41.1194 19.6449 41.8986 19.6449 42.851Z" fill="#AA6100"/>
<path d="M19.6449 39.3876C19.6449 39.8643 19.4499 40.2962 19.1364 40.6107C18.822 40.9242 18.3899 41.1192 17.9133 41.1192H7.30486C6.35248 41.1192 5.57324 40.34 5.57324 39.3876C5.57324 38.911 5.76827 38.479 6.08178 38.1645C6.39616 37.851 6.82823 37.656 7.30486 37.656H17.9133C18.8657 37.656 19.6449 38.4352 19.6449 39.3876Z" fill="#CC7400"/>
<path d="M19.6449 35.9245C19.6449 36.4011 19.4499 36.8331 19.1364 37.1476C18.822 37.4611 18.3899 37.6561 17.9133 37.6561H7.30486C6.35248 37.6561 5.57324 36.8769 5.57324 35.9245C5.57324 35.4479 5.76827 35.0159 6.08178 34.7014C6.39616 34.3879 6.82823 34.1929 7.30486 34.1929H17.9133C18.8657 34.193 19.6449 34.9721 19.6449 35.9245Z" fill="#EE8700"/>
<path d="M19.6449 32.4614C19.6449 32.938 19.4499 33.37 19.1364 33.6844C18.822 33.998 18.3899 34.193 17.9133 34.193H7.30486C6.35248 34.193 5.57324 33.4137 5.57324 32.4614C5.57324 32.1224 5.67256 31.8052 5.84298 31.5372C5.91136 31.4287 5.99151 31.3284 6.08178 31.2383C6.39616 30.9248 6.82823 30.7297 7.30486 30.7297H17.9133C18.8657 30.7297 19.6449 31.509 19.6449 32.4614Z" fill="#FF9811"/>
<path d="M17.9131 30.7298H7.30511C6.35272 30.7298 5.57349 29.9506 5.57349 28.9982C5.57349 28.0458 6.35272 27.2666 7.30511 27.2666H17.9132C18.8655 27.2666 19.6448 28.0458 19.6448 28.9982C19.6447 29.9506 18.8655 30.7298 17.9131 30.7298Z" fill="#FFA733"/>
<path d="M7.68124 33.5068V44.7798H5.95621C4.43298 44.8453 3.02418 44.2989 1.968 43.3601C-1.86509 39.9584 0.468056 33.7238 5.47352 33.5068H7.68124Z" fill="#CC7400"/>
<path d="M13.5539 39.3472C13.4524 42.2625 11.1207 44.6526 8.15786 44.7794C5.0453 44.9125 2.41412 42.4971 2.28105 39.3845C2.28052 39.3719 2.27991 39.3598 2.27991 39.3472C2.16741 36.2503 4.57605 33.6397 7.67596 33.5072C10.7885 33.3741 13.4197 35.7895 13.5528 38.9027C13.5591 39.0523 13.5596 39.2003 13.5539 39.3472Z" fill="#FFC477"/>
<path d="M8.85028 43.26C8.78146 43.2755 8.71308 43.2893 8.64435 43.3013C6.44173 43.6892 4.30001 42.2813 3.79965 40.0764C3.28443 37.8026 4.70958 35.5421 6.98331 35.0263C7.54897 34.8983 8.11411 34.8898 8.65173 34.985C10.2743 35.273 11.6462 36.502 12.0334 38.2099C12.5492 40.4837 11.124 42.7448 8.85028 43.26Z" fill="#CC7400"/>
<path d="M8.8504 43.2602C8.78158 43.2757 8.7132 43.2895 8.64447 43.3015C7.02253 43.0135 5.65012 41.784 5.26278 40.0765C4.74757 37.8027 6.17272 35.5422 8.44645 35.0264C8.51474 35.0109 8.58365 34.9971 8.65185 34.9851C10.2744 35.2731 11.6463 36.5021 12.0335 38.2101C12.5493 40.4838 11.1241 42.745 8.8504 43.2602Z" fill="#EE8700"/>
<path d="M13.5538 39.3472C13.4523 42.2624 11.1205 44.6525 8.15774 44.7794C5.04518 44.9124 2.41399 42.497 2.28093 39.3844C2.2804 39.3718 2.27979 39.3597 2.27979 39.3472H3.69913C3.71117 39.5887 3.7444 39.8326 3.79959 40.0764C4.31542 42.3502 6.5765 43.7759 8.85023 43.2601C10.7419 42.8314 12.0459 41.1952 12.1337 39.3472H13.5538Z" fill="#FFA733"/>
<path d="M8.42344 38.2862L8.31753 38.2471C7.71724 38.0264 7.65615 37.9565 7.65615 37.753C7.65615 37.5817 7.71926 37.5325 7.77841 37.4997C7.87052 37.4487 8.0151 37.4206 8.18543 37.4206C8.4832 37.4206 8.63315 37.4979 8.76674 37.5665C8.86896 37.6191 8.98488 37.6786 9.1357 37.6786C9.52559 37.6786 9.7875 37.3135 9.7875 36.9725C9.7875 36.5568 9.41581 36.2704 8.73387 36.1531V36.1102C8.73387 35.7293 8.42397 35.4194 8.04314 35.4194C7.66231 35.4194 7.3524 35.7293 7.3524 36.1102V36.2412C6.67951 36.4853 6.29877 37.0404 6.29877 37.7936C6.29877 38.9562 7.1434 39.2735 7.7603 39.5054C8.34847 39.7264 8.55193 39.8232 8.55193 40.2234C8.55193 40.4735 8.48461 40.7049 7.99567 40.7049C7.61142 40.7049 7.47624 40.5592 7.34537 40.418C7.24333 40.3079 7.08891 40.1417 6.83517 40.1417C6.4582 40.1417 6.17651 40.5145 6.17651 40.8477C6.17651 41.32 6.66756 41.7681 7.35249 41.95V42.0017C7.35249 42.3825 7.66239 42.6924 8.04322 42.6924C8.42405 42.6924 8.73396 42.3825 8.73396 42.0017V41.9319C9.47496 41.6936 9.90984 41.0556 9.90984 40.1827C9.90941 38.8402 8.94287 38.4798 8.42344 38.2862Z" fill="#AA6100"/>
<path d="M3.20944 36.0344C2.93224 36.4535 2.70952 36.9115 2.55141 37.3978H0.350098C0.506895 36.904 0.744287 36.4303 1.00717 36.0344H3.20944Z" fill="#AA6100"/>
<path d="M2.31965 39.8509H0.117378C0.0617431 39.4015 0.0570849 38.952 0.110962 38.4875H2.31411C2.26129 38.9303 2.26243 39.3904 2.31965 39.8509Z" fill="#AA6100"/>
<path d="M3.28679 42.3658H1.08363C0.785332 41.9385 0.55084 41.4739 0.387451 41.0024H2.58973C2.75962 41.4923 2.99596 41.9496 3.28679 42.3658Z" fill="#AA6100"/>
</g>
<defs>
<clipPath id="clip0_2_4964">
<rect width="45" height="45" fill="white" transform="translate(0.0078125)"/>
</clipPath>
</defs>
</svg>
