<svg width="46" height="45" viewBox="0 0 46 45" fill="none" xmlns="http://www.w3.org/2000/svg">
<g clip-path="url(#clip0_2_5017)">
<path d="M44.0699 37.4084H30.2189C29.9542 37.4084 29.7395 37.1938 29.7395 36.929V34.7113C29.7395 34.4465 29.9541 34.2319 30.2189 34.2319H44.0699C44.3346 34.2319 44.5493 34.4465 44.5493 34.7113V36.929C44.5493 37.1937 44.3347 37.4084 44.0699 37.4084Z" fill="url(#paint0_linear_2_5017)"/>
<path d="M42.3116 37.4084H31.9771C31.7472 37.4084 31.5608 37.2221 31.5608 36.9921V34.6482C31.5608 34.4183 31.7471 34.2319 31.9771 34.2319H42.3116C42.5414 34.2319 42.7279 34.4183 42.7279 34.6482V36.9921C42.7279 37.222 42.5415 37.4084 42.3116 37.4084Z" fill="url(#paint1_linear_2_5017)"/>
<path d="M38.9238 37.4084H35.365C35.2264 37.4084 35.114 37.296 35.114 37.1574V34.483C35.114 34.3443 35.2264 34.2319 35.365 34.2319H38.9238C39.0624 34.2319 39.1748 34.3443 39.1748 34.483V37.1574C39.1748 37.296 39.0624 37.4084 38.9238 37.4084Z" fill="url(#paint2_linear_2_5017)"/>
<path d="M30.6369 34.6184C30.3721 34.6184 30.1575 34.833 30.1575 35.0978V37.3155C30.1575 37.3463 30.1606 37.3763 30.1662 37.4054C30.1835 37.4073 30.2011 37.4084 30.2189 37.4084H44.0698C44.3345 37.4084 44.5492 37.1938 44.5492 36.929V34.7113C44.5492 34.6805 44.546 34.6505 44.5404 34.6214C44.5231 34.6196 44.5056 34.6184 44.4878 34.6184H30.6369Z" fill="url(#paint3_linear_2_5017)"/>
<path d="M44.0699 34.2319H30.2189C29.9542 34.2319 29.7395 34.0173 29.7395 33.7525V31.5348C29.7395 31.27 29.9541 31.0554 30.2189 31.0554H44.0699C44.3346 31.0554 44.5493 31.27 44.5493 31.5348V33.7525C44.5493 34.0172 44.3347 34.2319 44.0699 34.2319Z" fill="url(#paint4_linear_2_5017)"/>
<path d="M42.3116 34.2319H31.9771C31.7472 34.2319 31.5608 34.0455 31.5608 33.8156V31.4717C31.5608 31.2419 31.7471 31.0554 31.9771 31.0554H42.3116C42.5414 31.0554 42.7279 31.2418 42.7279 31.4717V33.8157C42.7279 34.0455 42.5415 34.2319 42.3116 34.2319Z" fill="url(#paint5_linear_2_5017)"/>
<path d="M38.9238 34.2319H35.365C35.2264 34.2319 35.114 34.1195 35.114 33.9809V31.3064C35.114 31.1678 35.2264 31.0554 35.365 31.0554H38.9238C39.0624 31.0554 39.1748 31.1678 39.1748 31.3064V33.9809C39.1748 34.1195 39.0624 34.2319 38.9238 34.2319Z" fill="url(#paint6_linear_2_5017)"/>
<path d="M30.6369 31.4419C30.3721 31.4419 30.1575 31.6565 30.1575 31.9213V34.139C30.1575 34.1698 30.1606 34.1997 30.1662 34.2289C30.1835 34.2308 30.2011 34.2319 30.2189 34.2319H44.0698C44.3345 34.2319 44.5492 34.0173 44.5492 33.7525V31.5348C44.5492 31.504 44.546 31.4741 44.5404 31.4449C44.5231 31.443 44.5056 31.4419 44.4878 31.4419H30.6369Z" fill="url(#paint7_linear_2_5017)"/>
<path d="M44.0699 31.0554H30.2189C29.9542 31.0554 29.7395 30.8408 29.7395 30.576V28.3583C29.7395 28.0935 29.9541 27.8789 30.2189 27.8789H44.0699C44.3346 27.8789 44.5493 28.0935 44.5493 28.3583V30.576C44.5493 30.8408 44.3347 31.0554 44.0699 31.0554Z" fill="url(#paint8_linear_2_5017)"/>
<path d="M42.3116 31.0554H31.9771C31.7472 31.0554 31.5608 30.869 31.5608 30.6391V28.2952C31.5608 28.0653 31.7471 27.8789 31.9771 27.8789H42.3116C42.5414 27.8789 42.7279 28.0653 42.7279 28.2952V30.6391C42.7279 30.869 42.5415 31.0554 42.3116 31.0554Z" fill="url(#paint9_linear_2_5017)"/>
<path d="M38.9238 31.0554H35.365C35.2264 31.0554 35.114 30.943 35.114 30.8044V28.1299C35.114 27.9913 35.2264 27.8789 35.365 27.8789H38.9238C39.0624 27.8789 39.1748 27.9913 39.1748 28.1299V30.8044C39.1748 30.943 39.0624 31.0554 38.9238 31.0554Z" fill="url(#paint10_linear_2_5017)"/>
<path d="M30.6369 28.2654C30.3721 28.2654 30.1575 28.48 30.1575 28.7448V30.9625C30.1575 30.9933 30.1606 31.0233 30.1662 31.0524C30.1835 31.0542 30.2011 31.0554 30.2189 31.0554H44.0698C44.3345 31.0554 44.5492 30.8408 44.5492 30.576V28.3583C44.5492 28.3275 44.546 28.2975 44.5404 28.2684C44.5231 28.2665 44.5056 28.2654 44.4878 28.2654H30.6369Z" fill="url(#paint11_linear_2_5017)"/>
<path d="M44.0699 27.8791H30.2189C29.9542 27.8791 29.7395 27.6645 29.7395 27.3997V25.182C29.7395 24.9172 29.9541 24.7026 30.2189 24.7026H44.0699C44.3346 24.7026 44.5493 24.9172 44.5493 25.182V27.3997C44.5493 27.6645 44.3347 27.8791 44.0699 27.8791Z" fill="url(#paint12_linear_2_5017)"/>
<path d="M42.3116 27.8791H31.9771C31.7472 27.8791 31.5608 27.6928 31.5608 27.4628V25.1189C31.5608 24.8891 31.7471 24.7026 31.9771 24.7026H42.3116C42.5414 24.7026 42.7279 24.889 42.7279 25.1189V27.4629C42.7279 27.6928 42.5415 27.8791 42.3116 27.8791Z" fill="url(#paint13_linear_2_5017)"/>
<path d="M38.9238 27.8791H35.365C35.2264 27.8791 35.114 27.7667 35.114 27.6281V24.9537C35.114 24.815 35.2264 24.7026 35.365 24.7026H38.9238C39.0624 24.7026 39.1748 24.815 39.1748 24.9537V27.6281C39.1748 27.7667 39.0624 27.8791 38.9238 27.8791Z" fill="url(#paint14_linear_2_5017)"/>
<path d="M30.6369 25.0891C30.3721 25.0891 30.1575 25.3037 30.1575 25.5685V27.7862C30.1575 27.817 30.1606 27.847 30.1662 27.8761C30.1835 27.8781 30.2011 27.8791 30.2189 27.8791H44.0698C44.3345 27.8791 44.5492 27.6645 44.5492 27.3997V25.182C44.5492 25.1512 44.546 25.1213 44.5404 25.0921C44.5231 25.0902 44.5056 25.0891 44.4878 25.0891H30.6369Z" fill="url(#paint15_linear_2_5017)"/>
<path d="M44.0699 24.7026H30.2189C29.9542 24.7026 29.7395 24.488 29.7395 24.2232V22.0055C29.7395 21.7407 29.9541 21.5261 30.2189 21.5261H44.0699C44.3346 21.5261 44.5493 21.7407 44.5493 22.0055V24.2232C44.5493 24.488 44.3347 24.7026 44.0699 24.7026Z" fill="url(#paint16_linear_2_5017)"/>
<path d="M42.3116 24.7026H31.9771C31.7472 24.7026 31.5608 24.5162 31.5608 24.2863V21.9424C31.5608 21.7125 31.7471 21.5261 31.9771 21.5261H42.3116C42.5414 21.5261 42.7279 21.7125 42.7279 21.9424V24.2863C42.7279 24.5162 42.5415 24.7026 42.3116 24.7026Z" fill="url(#paint17_linear_2_5017)"/>
<path d="M38.9238 24.7026H35.365C35.2264 24.7026 35.114 24.5902 35.114 24.4516V21.7772C35.114 21.6385 35.2264 21.5261 35.365 21.5261H38.9238C39.0624 21.5261 39.1748 21.6385 39.1748 21.7772V24.4516C39.1748 24.5903 39.0624 24.7026 38.9238 24.7026Z" fill="url(#paint18_linear_2_5017)"/>
<path d="M30.6369 21.9126C30.3721 21.9126 30.1575 22.1272 30.1575 22.392V24.6097C30.1575 24.6405 30.1606 24.6705 30.1662 24.6996C30.1835 24.7014 30.2011 24.7026 30.2189 24.7026H44.0698C44.3345 24.7026 44.5492 24.488 44.5492 24.2232V22.0055C44.5492 21.9747 44.546 21.9447 44.5404 21.9156C44.5231 21.9137 44.5056 21.9126 44.4878 21.9126H30.6369Z" fill="url(#paint19_linear_2_5017)"/>
<path d="M44.0699 21.5261H30.2189C29.9542 21.5261 29.7395 21.3115 29.7395 21.0467V18.829C29.7395 18.5642 29.9541 18.3496 30.2189 18.3496H44.0699C44.3346 18.3496 44.5493 18.5642 44.5493 18.829V21.0467C44.5493 21.3115 44.3347 21.5261 44.0699 21.5261Z" fill="url(#paint20_linear_2_5017)"/>
<path d="M42.3116 21.5261H31.9771C31.7472 21.5261 31.5608 21.3397 31.5608 21.1098V18.7659C31.5608 18.536 31.7471 18.3496 31.9771 18.3496H42.3116C42.5414 18.3496 42.7279 18.536 42.7279 18.7659V21.1098C42.7279 21.3397 42.5415 21.5261 42.3116 21.5261Z" fill="url(#paint21_linear_2_5017)"/>
<path d="M38.9238 21.5261H35.365C35.2264 21.5261 35.114 21.4137 35.114 21.2751V18.6006C35.114 18.462 35.2264 18.3496 35.365 18.3496H38.9238C39.0624 18.3496 39.1748 18.462 39.1748 18.6006V21.2751C39.1748 21.4138 39.0624 21.5261 38.9238 21.5261Z" fill="url(#paint22_linear_2_5017)"/>
<path d="M30.6369 18.7361C30.3721 18.7361 30.1575 18.9507 30.1575 19.2155V21.4332C30.1575 21.464 30.1606 21.4939 30.1662 21.5231C30.1835 21.5249 30.2011 21.5261 30.2189 21.5261H44.0698C44.3345 21.5261 44.5492 21.3115 44.5492 21.0467V18.829C44.5492 18.7982 44.546 18.7683 44.5404 18.7391C44.5231 18.7372 44.5056 18.7361 44.4878 18.7361H30.6369Z" fill="url(#paint23_linear_2_5017)"/>
<path d="M44.0699 18.3496H30.2189C29.9542 18.3496 29.7395 18.135 29.7395 17.8702V15.6525C29.7395 15.3877 29.9541 15.1731 30.2189 15.1731H44.0699C44.3346 15.1731 44.5493 15.3877 44.5493 15.6525V17.8702C44.5493 18.1349 44.3347 18.3496 44.0699 18.3496Z" fill="url(#paint24_linear_2_5017)"/>
<path d="M42.3116 18.3497H31.9771C31.7472 18.3497 31.5608 18.1633 31.5608 17.9334V15.5894C31.5608 15.3595 31.7471 15.1731 31.9771 15.1731H42.3116C42.5414 15.1731 42.7279 15.3594 42.7279 15.5894V17.9333C42.7279 18.1632 42.5415 18.3497 42.3116 18.3497Z" fill="url(#paint25_linear_2_5017)"/>
<path d="M38.9238 18.3496H35.365C35.2264 18.3496 35.114 18.2372 35.114 18.0985V15.4241C35.114 15.2855 35.2264 15.1731 35.365 15.1731H38.9238C39.0624 15.1731 39.1748 15.2855 39.1748 15.4241V18.0985C39.1748 18.2372 39.0624 18.3496 38.9238 18.3496Z" fill="url(#paint26_linear_2_5017)"/>
<path d="M30.6369 15.5596C30.3721 15.5596 30.1575 15.7742 30.1575 16.039V18.2567C30.1575 18.2874 30.1606 18.3174 30.1662 18.3466C30.1835 18.3484 30.2011 18.3496 30.2189 18.3496H44.0698C44.3345 18.3496 44.5492 18.135 44.5492 17.8702V15.6525C44.5492 15.6217 44.546 15.5917 44.5404 15.5626C44.5231 15.5607 44.5056 15.5596 44.4878 15.5596H30.6369Z" fill="url(#paint27_linear_2_5017)"/>
<path d="M44.0699 15.1733H30.2189C29.9542 15.1733 29.7395 14.9587 29.7395 14.6939V12.4762C29.7395 12.2114 29.9541 11.9968 30.2189 11.9968H44.0699C44.3346 11.9968 44.5493 12.2114 44.5493 12.4762V14.6939C44.5493 14.9586 44.3347 15.1733 44.0699 15.1733Z" fill="url(#paint28_linear_2_5017)"/>
<path d="M42.3116 15.1733H31.9771C31.7472 15.1733 31.5608 14.9869 31.5608 14.757V12.4131C31.5608 12.1833 31.7471 11.9968 31.9771 11.9968H42.3116C42.5414 11.9968 42.7279 12.1832 42.7279 12.4131V14.757C42.7279 14.9869 42.5415 15.1733 42.3116 15.1733Z" fill="url(#paint29_linear_2_5017)"/>
<path d="M38.9238 15.1733H35.365C35.2264 15.1733 35.114 15.0609 35.114 14.9223V12.2479C35.114 12.1092 35.2264 11.9968 35.365 11.9968H38.9238C39.0624 11.9968 39.1748 12.1092 39.1748 12.2479V14.9223C39.1748 15.0609 39.0624 15.1733 38.9238 15.1733Z" fill="url(#paint30_linear_2_5017)"/>
<path d="M30.6369 12.3833C30.3721 12.3833 30.1575 12.5979 30.1575 12.8627V15.0804C30.1575 15.1112 30.1606 15.1411 30.1662 15.1703C30.1835 15.1721 30.2011 15.1733 30.2189 15.1733H44.0698C44.3345 15.1733 44.5492 14.9587 44.5492 14.6939V12.4762C44.5492 12.4454 44.546 12.4154 44.5404 12.3863C44.5231 12.3844 44.5056 12.3833 44.4878 12.3833H30.6369Z" fill="url(#paint31_linear_2_5017)"/>
<path d="M36.863 23.6182L35.5901 16.9429C34.6407 11.9638 30.2871 8.36182 25.2182 8.36182H20.4425C15.3737 8.36182 11.0201 11.9638 10.0707 16.9429L9.34899 20.7276C8.65546 24.3646 7.54687 27.9228 5.88893 31.2335C5.40416 32.2014 5.1496 33.3045 5.19734 34.4715C5.33525 37.8479 8.30675 40.7531 11.6853 40.8192C11.7101 40.8196 11.7348 40.82 11.7595 40.8202C13.2923 40.8335 14.7681 41.4308 15.8431 42.5236C17.0445 43.745 18.7157 44.5025 20.5645 44.5025C22.8082 44.5025 24.7909 43.387 25.9895 41.6806C26.3753 41.1313 27.0081 40.8191 27.6795 40.8204H27.6912C27.9796 40.8204 28.263 40.7991 28.54 40.7579C29.0623 40.6806 29.5908 40.8139 30.022 41.1188C31.1882 41.9437 32.6323 42.4017 34.1868 42.323C37.5136 42.1546 40.2274 39.4915 40.4534 36.1681C40.5348 34.9724 40.2982 33.839 39.8202 32.8435C38.4171 29.9217 37.47 26.802 36.863 23.6182Z" fill="url(#paint32_radial_2_5017)"/>
<path d="M11.818 40.8204C15.4777 40.8204 18.4444 37.8537 18.4444 34.194C18.4444 30.5344 15.4777 27.5676 11.818 27.5676C8.15838 27.5676 5.19165 30.5344 5.19165 34.194C5.19165 37.8537 8.15838 40.8204 11.818 40.8204Z" fill="url(#paint33_linear_2_5017)"/>
<path d="M20.5646 44.5023C24.2243 44.5023 27.191 41.5355 27.191 37.8759C27.191 34.2162 24.2243 31.2495 20.5646 31.2495C16.905 31.2495 13.9382 34.2162 13.9382 37.8759C13.9382 41.5355 16.905 44.5023 20.5646 44.5023Z" fill="url(#paint34_linear_2_5017)"/>
<path d="M33.8429 42.3316C37.5026 42.3316 40.4693 39.3649 40.4693 35.7052C40.4693 32.0456 37.5026 29.0789 33.8429 29.0789C30.1833 29.0789 27.2166 32.0456 27.2166 35.7052C27.2166 39.3649 30.1833 42.3316 33.8429 42.3316Z" fill="url(#paint35_linear_2_5017)"/>
<path d="M40.4534 36.1681C40.5348 34.9724 40.2982 33.839 39.8202 32.8435C38.417 29.9217 37.4701 26.802 36.863 23.6182L35.5902 16.9428C35.2457 15.1361 34.4512 13.5123 33.3388 12.1745C31.4977 10.65 29.1409 9.74854 26.6051 9.74854H21.8293C16.7606 9.74854 12.4069 13.3505 11.4575 18.3296L10.7358 22.1143C10.0422 25.7513 8.93366 29.3095 7.27572 32.6201C6.79095 33.588 6.53639 34.6912 6.58404 35.8582C6.6383 37.1865 7.13251 38.441 7.91622 39.4792C8.99472 40.2915 10.3059 40.792 11.6853 40.819C11.7101 40.8194 11.7348 40.8198 11.7595 40.8201C13.2923 40.8333 14.7682 41.4307 15.8432 42.5235C17.0446 43.7448 18.7158 44.5023 20.5646 44.5023C22.8083 44.5023 24.7909 43.3868 25.9895 41.6804C26.3754 41.1311 27.0082 40.8189 27.6796 40.8202H27.6912C27.9797 40.8202 28.2631 40.7989 28.5401 40.7578C29.0624 40.6804 29.5909 40.8137 30.0221 41.1187C31.1883 41.9436 32.6323 42.4015 34.1869 42.3228C37.5136 42.1546 40.2274 39.4915 40.4534 36.1681Z" fill="url(#paint36_linear_2_5017)"/>
<path d="M26.6803 16.1622C26.2006 16.0138 25.7448 15.9069 25.313 15.841C25.1048 15.8092 24.8944 15.7834 24.6824 15.7631C24.6807 15.7621 24.679 15.7612 24.6773 15.7602L23.7059 14.7541C23.5141 14.6289 23.306 14.5659 23.0823 14.5659C22.8262 14.5659 22.6104 14.6256 22.4346 14.744C22.2585 14.8627 22.1708 15.0037 22.1708 15.1664V15.7892C20.7796 15.9848 19.6321 16.4987 18.7288 17.3303C17.8251 18.1619 17.3736 19.3032 17.3736 20.7544C17.3736 21.3462 17.4775 21.8859 17.6854 22.3735C17.8931 22.8614 18.133 23.261 18.4051 23.5728L22.1709 27.342V29.5814C21.5472 29.4696 20.8674 29.1537 20.1321 28.6339C19.3963 28.1144 18.8765 27.8543 18.5729 27.8543C18.1412 27.8543 17.7612 28.0784 17.4335 28.526C17.1057 28.9739 16.9419 29.4217 16.9419 29.8693C16.9419 30.4525 17.228 30.9913 17.7994 31.4858L27.1899 40.8763C27.3487 40.8392 27.513 40.8201 27.6798 40.8204H27.6914C27.9799 40.8204 28.2633 40.7991 28.5402 40.7579C29.0626 40.6806 29.591 40.8139 30.0222 41.1188C31.1884 41.9437 32.6325 42.4017 34.187 42.323C37.5139 42.1546 40.2276 39.4915 40.4537 36.1681C40.535 34.9723 40.2985 33.839 39.8204 32.8435C38.8439 30.81 38.0889 28.6806 37.515 26.5004L27.8436 16.8293C27.5475 16.5329 27.1601 16.3106 26.6803 16.1622Z" fill="url(#paint37_linear_2_5017)"/>
<path d="M28.4194 25.9596C28.2191 25.448 27.9793 25.024 27.6997 24.6883C27.4197 24.3524 27.0479 24.0328 26.5842 23.7288C26.1203 23.4252 25.7047 23.1933 25.337 23.0332C24.969 22.8735 24.5215 22.6896 23.9938 22.4815V18.9794C24.5694 19.0274 25.1249 19.1874 25.6609 19.4592C26.1965 19.7313 26.5761 19.867 26.8002 19.867C27.2638 19.867 27.6278 19.6394 27.8916 19.1845C28.1555 18.7295 28.2874 18.2902 28.2874 17.8675C28.2874 17.4721 28.1394 17.1262 27.8436 16.8293C27.5475 16.5329 27.1601 16.3107 26.6803 16.1622C26.2006 16.0138 25.7448 15.9069 25.313 15.841C24.8813 15.775 24.4413 15.7338 23.9938 15.7173V15.1637C23.9938 15.016 23.8978 14.8796 23.7059 14.754C23.5141 14.6288 23.306 14.5659 23.0823 14.5659C22.8262 14.5659 22.6104 14.6256 22.4346 14.744C22.2585 14.8627 22.1708 15.0037 22.1708 15.1664V15.7892C20.7796 15.9848 19.6321 16.4987 18.7288 17.3303C17.8251 18.1619 17.3736 19.3032 17.3736 20.7544C17.3736 21.3462 17.4774 21.8859 17.6854 22.3735C17.8931 22.8614 18.133 23.261 18.4051 23.5728C18.6768 23.8846 19.0606 24.1886 19.5564 24.4843C20.0518 24.7804 20.468 25 20.8037 25.1438C21.1395 25.2877 21.5952 25.4718 22.1709 25.6956V29.5813C21.5472 29.4696 20.8674 29.1537 20.1321 28.6339C19.3963 28.1144 18.8765 27.8543 18.5729 27.8543C18.1412 27.8543 17.7612 28.0784 17.4335 28.526C17.1057 28.9739 16.9419 29.4217 16.9419 29.8693C16.9419 30.653 17.4576 31.3564 18.489 31.9801C19.5205 32.6038 20.7475 32.9396 22.1709 32.9875V33.5871C22.1709 33.7629 22.2587 33.9147 22.4347 34.0429C22.6105 34.1706 22.8263 34.2348 23.0824 34.2348C23.306 34.2348 23.5142 34.1666 23.706 34.0309C23.898 33.8948 23.9939 33.7468 23.9939 33.5871V32.8915C25.4331 32.6517 26.5803 32.0842 27.4359 31.1885C28.2912 30.2931 28.7192 29.1178 28.7192 27.6624C28.7191 27.0388 28.6191 26.4714 28.4194 25.9596ZM22.4107 21.9058C21.3872 21.474 20.8755 20.9703 20.8755 20.3946C20.8755 19.7073 21.3871 19.2594 22.4107 19.0514V21.9058ZM23.7539 29.5574V26.3433C24.7291 26.8072 25.2171 27.3747 25.2171 28.0463C25.2171 28.8299 24.7291 29.3337 23.7539 29.5574Z" fill="url(#paint38_linear_2_5017)"/>
<path d="M26.0852 8.36178H19.5759L16.6146 2.68471C16.1774 1.84666 16.6765 0.824714 17.6063 0.654243L19.5456 0.298655C21.7175 -0.0995515 23.9437 -0.0995515 26.1155 0.298655L28.0548 0.654243C28.9846 0.824714 29.4837 1.84657 29.0465 2.68471L26.0852 8.36178Z" fill="url(#paint39_linear_2_5017)"/>
<path d="M23.913 8.36178H21.7481L20.7632 2.68471C20.6178 1.84666 20.7839 0.824714 21.0931 0.654243L21.7381 0.298655C22.4604 -0.0995515 23.2007 -0.0995515 23.9231 0.298655L24.5681 0.654243C24.8774 0.824714 25.0434 1.84657 24.8979 2.68471L23.913 8.36178Z" fill="url(#paint40_linear_2_5017)"/>
<path d="M28.9488 1.22552C29.0756 1.40605 29.0118 1.65761 28.8149 1.75741C27.8914 2.22708 26.7993 2.22708 25.8758 1.75741L25.0593 1.34288C24.1359 0.8732 23.0437 0.8732 22.1202 1.34288L21.3048 1.75741C20.3813 2.22708 19.2892 2.22708 18.3656 1.75741L17.5116 1.32302C17.2124 1.17082 17.2682 0.718259 17.5981 0.656318C17.6009 0.655788 17.6036 0.655259 17.6065 0.654729L19.5458 0.298435C21.7173 -0.0991529 23.9439 -0.0991529 26.1154 0.298435L28.0548 0.654729C28.4377 0.724523 28.7471 0.938759 28.9488 1.22552Z" fill="url(#paint41_linear_2_5017)"/>
<path d="M29.0654 2.02127C29.109 1.91548 29.1405 1.80695 29.1638 1.69754C29.0363 1.18807 28.6278 0.759331 28.0549 0.654243L26.1156 0.298655C23.9437 -0.0995515 21.7175 -0.0995515 19.5457 0.298655L18.0992 0.56389C17.918 0.998096 17.8949 1.53668 18.0946 2.02127L20.7079 8.36178H26.0852L27.8333 5.01051L29.0654 2.02127Z" fill="url(#paint42_linear_2_5017)"/>
<path d="M22.8304 8.99824C21.4194 8.99824 20.0839 8.90709 18.9894 8.73865C18.629 8.68315 18.3872 8.33956 18.4599 7.9822C18.5275 7.64991 18.8432 7.4287 19.1784 7.48006C20.2064 7.63764 21.4995 7.72588 22.8304 7.72588C24.1613 7.72588 25.4543 7.63764 26.4824 7.48006C26.8176 7.4287 27.1333 7.64982 27.2009 7.9822C27.2736 8.33956 27.0318 8.68324 26.6714 8.73865C25.5769 8.90709 24.2414 8.99824 22.8304 8.99824Z" fill="url(#paint43_linear_2_5017)"/>
<path d="M15.261 26.3089C15.2104 26.0983 15.0228 25.9412 14.7968 25.9412H13.0385H9.65064H8.0317C7.45076 27.7555 6.74329 29.5274 5.889 31.2332C5.40423 32.2012 5.14967 33.3043 5.19732 34.4713C5.33523 37.8476 8.30682 40.7529 11.6853 40.819C11.7101 40.8194 11.7348 40.8197 11.7596 40.82C13.2924 40.8332 14.7683 41.4306 15.8433 42.5234C17.0447 43.7448 18.7158 44.5022 20.5646 44.5022C22.8084 44.5022 24.791 43.3868 25.9896 41.6804C26.3755 41.131 27.0083 40.8189 27.6797 40.8202H27.6913C27.9798 40.8202 28.2632 40.7988 28.5401 40.7577C29.0625 40.6803 29.5909 40.8137 30.0221 41.1186C30.0716 41.1536 30.1223 41.1871 30.1728 41.2207L15.261 26.3089Z" fill="url(#paint44_linear_2_5017)"/>
<path d="M14.7967 45H0.945691C0.680985 45 0.466309 44.7854 0.466309 44.5206V42.3029C0.466309 42.0381 0.680897 41.8235 0.945691 41.8235H14.7967C15.0614 41.8235 15.2761 42.0381 15.2761 42.3029V44.5206C15.2761 44.7854 15.0614 45 14.7967 45Z" fill="url(#paint45_linear_2_5017)"/>
<path d="M13.0386 45H2.70414C2.47419 45 2.28784 44.8136 2.28784 44.5837V42.2398C2.28784 42.0099 2.47419 41.8235 2.70414 41.8235H13.0386C13.2685 41.8235 13.4549 42.0098 13.4549 42.2398V44.5837C13.4549 44.8136 13.2685 45 13.0386 45Z" fill="url(#paint46_linear_2_5017)"/>
<path d="M9.65056 45H6.09185C5.95323 45 5.84082 44.8875 5.84082 44.7489V42.0745C5.84082 41.9359 5.95323 41.8235 6.09185 41.8235H9.65056C9.78917 41.8235 9.90158 41.9359 9.90158 42.0745V44.7489C9.90158 44.8875 9.78917 45 9.65056 45Z" fill="url(#paint47_linear_2_5017)"/>
<path d="M1.36366 42.21C1.09887 42.21 0.884277 42.4245 0.884277 42.6893V44.9071C0.884277 44.9378 0.887454 44.9678 0.893013 44.997C0.910307 44.9988 0.927866 45 0.945689 45H14.7967C15.0615 45 15.2761 44.7854 15.2761 44.5206V42.3029C15.2761 42.2721 15.2729 42.2421 15.2673 42.213C15.25 42.2111 15.2325 42.21 15.2147 42.21H1.36366Z" fill="url(#paint48_linear_2_5017)"/>
<path d="M14.7967 41.8234H0.945691C0.680985 41.8234 0.466309 41.6089 0.466309 41.3441V39.1264C0.466309 38.8616 0.680897 38.647 0.945691 38.647H14.7967C15.0614 38.647 15.2761 38.8616 15.2761 39.1264V41.3441C15.2761 41.6089 15.0614 41.8234 14.7967 41.8234Z" fill="url(#paint49_linear_2_5017)"/>
<path d="M13.0386 41.8235H2.70414C2.47419 41.8235 2.28784 41.6372 2.28784 41.4072V39.0633C2.28784 38.8334 2.47419 38.647 2.70414 38.647H13.0386C13.2685 38.647 13.4549 38.8333 13.4549 39.0633V41.4072C13.4549 41.6372 13.2685 41.8235 13.0386 41.8235Z" fill="url(#paint50_linear_2_5017)"/>
<path d="M9.65056 41.8234H6.09185C5.95323 41.8234 5.84082 41.711 5.84082 41.5724V38.898C5.84082 38.7594 5.95323 38.647 6.09185 38.647H9.65056C9.78917 38.647 9.90158 38.7594 9.90158 38.898V41.5724C9.90158 41.711 9.78917 41.8234 9.65056 41.8234Z" fill="url(#paint51_linear_2_5017)"/>
<path d="M1.36366 39.0334C1.09887 39.0334 0.884277 39.248 0.884277 39.5128V41.7305C0.884277 41.7613 0.887454 41.7913 0.893013 41.8205C0.910307 41.8224 0.927866 41.8235 0.945689 41.8235H14.7967C15.0615 41.8235 15.2761 41.6089 15.2761 41.3441V39.1264C15.2761 39.0956 15.2729 39.0656 15.2673 39.0364C15.25 39.0345 15.2325 39.0334 15.2147 39.0334H1.36366Z" fill="url(#paint52_linear_2_5017)"/>
<path d="M14.7967 38.6472H0.945691C0.680985 38.6472 0.466309 38.4326 0.466309 38.1678V35.9501C0.466309 35.6854 0.680897 35.4707 0.945691 35.4707H14.7967C15.0614 35.4707 15.2761 35.6853 15.2761 35.9501V38.1678C15.2761 38.4326 15.0614 38.6472 14.7967 38.6472Z" fill="url(#paint53_linear_2_5017)"/>
<path d="M13.0386 38.6472H2.70414C2.47419 38.6472 2.28784 38.4608 2.28784 38.2309V35.887C2.28784 35.6571 2.47419 35.4707 2.70414 35.4707H13.0386C13.2685 35.4707 13.4549 35.6571 13.4549 35.887V38.2309C13.4549 38.4608 13.2685 38.6472 13.0386 38.6472Z" fill="url(#paint54_linear_2_5017)"/>
<path d="M9.65056 38.6472H6.09185C5.95323 38.6472 5.84082 38.5348 5.84082 38.3961V35.7217C5.84082 35.5831 5.95323 35.4707 6.09185 35.4707H9.65056C9.78917 35.4707 9.90158 35.5831 9.90158 35.7217V38.3961C9.90158 38.5349 9.78917 38.6472 9.65056 38.6472Z" fill="url(#paint55_linear_2_5017)"/>
<path d="M1.36366 35.8572C1.09887 35.8572 0.884277 36.0718 0.884277 36.3366V38.5543C0.884277 38.5851 0.887454 38.6151 0.893013 38.6442C0.910307 38.646 0.927866 38.6472 0.945689 38.6472H14.7967C15.0615 38.6472 15.2761 38.4326 15.2761 38.1678V35.9501C15.2761 35.9193 15.2729 35.8894 15.2673 35.8602C15.25 35.8583 15.2325 35.8572 15.2147 35.8572H1.36366Z" fill="url(#paint56_linear_2_5017)"/>
<path d="M14.7967 35.4707H0.945691C0.680985 35.4707 0.466309 35.2561 0.466309 34.9913V32.7736C0.466309 32.5088 0.680897 32.2942 0.945691 32.2942H14.7967C15.0614 32.2942 15.2761 32.5088 15.2761 32.7736V34.9913C15.2761 35.2561 15.0614 35.4707 14.7967 35.4707Z" fill="url(#paint57_linear_2_5017)"/>
<path d="M13.0386 35.4705H2.70414C2.47419 35.4705 2.28784 35.2842 2.28784 35.0542V32.7102C2.28784 32.4804 2.47419 32.2939 2.70414 32.2939H13.0386C13.2685 32.2939 13.4549 32.4803 13.4549 32.7102V35.0542C13.4549 35.2842 13.2685 35.4705 13.0386 35.4705Z" fill="url(#paint58_linear_2_5017)"/>
<path d="M9.65056 35.4707H6.09185C5.95323 35.4707 5.84082 35.3583 5.84082 35.2196V32.5452C5.84082 32.4066 5.95323 32.2942 6.09185 32.2942H9.65056C9.78917 32.2942 9.90158 32.4066 9.90158 32.5452V35.2196C9.90158 35.3583 9.78917 35.4707 9.65056 35.4707Z" fill="url(#paint59_linear_2_5017)"/>
<path d="M1.36366 32.6807C1.09887 32.6807 0.884277 32.8953 0.884277 33.16V35.3778C0.884277 35.4086 0.887454 35.4385 0.893013 35.4677C0.910307 35.4696 0.927866 35.4707 0.945689 35.4707H14.7967C15.0615 35.4707 15.2761 35.2561 15.2761 34.9913V32.7736C15.2761 32.7428 15.2729 32.7129 15.2673 32.6837C15.25 32.6817 15.2325 32.6807 15.2147 32.6807H1.36366Z" fill="url(#paint60_linear_2_5017)"/>
<path d="M14.7967 32.2942H0.945691C0.680985 32.2942 0.466309 32.0796 0.466309 31.8148V29.5971C0.466309 29.3324 0.680897 29.1177 0.945691 29.1177H14.7967C15.0614 29.1177 15.2761 29.3323 15.2761 29.5971V31.8148C15.2761 32.0795 15.0614 32.2942 14.7967 32.2942Z" fill="url(#paint61_linear_2_5017)"/>
<path d="M13.0386 32.2942H2.70414C2.47419 32.2942 2.28784 32.1078 2.28784 31.8779V29.534C2.28784 29.3041 2.47419 29.1177 2.70414 29.1177H13.0386C13.2685 29.1177 13.4549 29.304 13.4549 29.534V31.8779C13.4549 32.1077 13.2685 32.2942 13.0386 32.2942Z" fill="url(#paint62_linear_2_5017)"/>
<path d="M9.65056 32.2942H6.09185C5.95323 32.2942 5.84082 32.1817 5.84082 32.0431V29.3687C5.84082 29.2301 5.95323 29.1177 6.09185 29.1177H9.65056C9.78917 29.1177 9.90158 29.2301 9.90158 29.3687V32.0431C9.90158 32.1817 9.78917 32.2942 9.65056 32.2942Z" fill="url(#paint63_linear_2_5017)"/>
<path d="M1.36366 29.5042C1.09887 29.5042 0.884277 29.7187 0.884277 29.9835V32.2012C0.884277 32.232 0.887454 32.262 0.893013 32.2912C0.910307 32.293 0.927866 32.2942 0.945689 32.2942H14.7967C15.0615 32.2942 15.2761 32.0796 15.2761 31.8148V29.5971C15.2761 29.5663 15.2729 29.5364 15.2673 29.5072C15.25 29.5053 15.2325 29.5042 15.2147 29.5042H1.36366Z" fill="url(#paint64_linear_2_5017)"/>
<path d="M14.7967 29.1176H0.945691C0.680985 29.1176 0.466309 28.903 0.466309 28.6383V26.4205C0.466309 26.1557 0.680897 25.9412 0.945691 25.9412H14.7967C15.0614 25.9412 15.2761 26.1557 15.2761 26.4205V28.6383C15.2761 28.903 15.0614 29.1176 14.7967 29.1176Z" fill="url(#paint65_linear_2_5017)"/>
<path d="M13.0386 29.1177H2.70414C2.47419 29.1177 2.28784 28.9314 2.28784 28.7014V26.3575C2.28784 26.1276 2.47419 25.9412 2.70414 25.9412H13.0386C13.2685 25.9412 13.4549 26.1275 13.4549 26.3575V28.7014C13.4549 28.9314 13.2685 29.1177 13.0386 29.1177Z" fill="url(#paint66_linear_2_5017)"/>
<path d="M9.65056 29.1176H6.09185C5.95323 29.1176 5.84082 29.0052 5.84082 28.8666V26.1922C5.84082 26.0536 5.95323 25.9412 6.09185 25.9412H9.65056C9.78917 25.9412 9.90158 26.0536 9.90158 26.1922V28.8666C9.90158 29.0052 9.78917 29.1176 9.65056 29.1176Z" fill="url(#paint67_linear_2_5017)"/>
<path d="M1.36366 26.3276C1.09887 26.3276 0.884277 26.5422 0.884277 26.807V29.0247C0.884277 29.0555 0.887454 29.0854 0.893013 29.1146C0.910307 29.1165 0.927866 29.1176 0.945689 29.1176H14.7967C15.0615 29.1176 15.2761 28.9031 15.2761 28.6383V26.4205C15.2761 26.3898 15.2729 26.3598 15.2673 26.3306C15.25 26.3288 15.2325 26.3276 15.2147 26.3276H1.36366Z" fill="url(#paint68_linear_2_5017)"/>
<path d="M40.7684 45H26.9174C26.6526 45 26.438 44.7854 26.438 44.5206V42.3029C26.438 42.0381 26.6526 41.8235 26.9174 41.8235H40.7684C41.0331 41.8235 41.2478 42.0381 41.2478 42.3029V44.5206C41.2478 44.7854 41.0331 45 40.7684 45Z" fill="url(#paint69_linear_2_5017)"/>
<path d="M39.0101 45H28.6756C28.4457 45 28.2593 44.8136 28.2593 44.5837V42.2398C28.2593 42.0099 28.4456 41.8235 28.6756 41.8235H39.0101C39.2399 41.8235 39.4264 42.0098 39.4264 42.2398V44.5837C39.4264 44.8136 39.2399 45 39.0101 45Z" fill="url(#paint70_linear_2_5017)"/>
<path d="M35.6222 45H32.0635C31.9249 45 31.8125 44.8875 31.8125 44.7489V42.0745C31.8125 41.9359 31.9249 41.8235 32.0635 41.8235H35.6222C35.7609 41.8235 35.8733 41.9359 35.8733 42.0745V44.7489C35.8733 44.8875 35.7609 45 35.6222 45Z" fill="url(#paint71_linear_2_5017)"/>
<path d="M27.3353 42.21C27.0706 42.21 26.856 42.4245 26.856 42.6893V44.9071C26.856 44.9378 26.8591 44.9678 26.8647 44.997C26.882 44.9988 26.8995 45 26.9174 45H40.7684C41.0331 45 41.2478 44.7854 41.2478 44.5206V42.3029C41.2478 42.2721 41.2446 42.2421 41.239 42.213C41.2217 42.2111 41.2042 42.21 41.1863 42.21H27.3353Z" fill="url(#paint72_linear_2_5017)"/>
<path d="M40.7684 41.8234H26.9174C26.6526 41.8234 26.438 41.6089 26.438 41.3441V39.1264C26.438 38.8616 26.6526 38.647 26.9174 38.647H40.7684C41.0331 38.647 41.2478 38.8616 41.2478 39.1264V41.3441C41.2478 41.6089 41.0331 41.8234 40.7684 41.8234Z" fill="url(#paint73_linear_2_5017)"/>
<path d="M39.0101 41.8235H28.6756C28.4457 41.8235 28.2593 41.6372 28.2593 41.4072V39.0633C28.2593 38.8334 28.4456 38.647 28.6756 38.647H39.0101C39.2399 38.647 39.4264 38.8333 39.4264 39.0633V41.4072C39.4264 41.6372 39.2399 41.8235 39.0101 41.8235Z" fill="url(#paint74_linear_2_5017)"/>
<path d="M35.6222 41.8234H32.0635C31.9249 41.8234 31.8125 41.711 31.8125 41.5724V38.898C31.8125 38.7594 31.9249 38.647 32.0635 38.647H35.6222C35.7609 38.647 35.8733 38.7594 35.8733 38.898V41.5724C35.8733 41.711 35.7609 41.8234 35.6222 41.8234Z" fill="url(#paint75_linear_2_5017)"/>
<path d="M27.3353 39.0334C27.0706 39.0334 26.856 39.248 26.856 39.5128V41.7305C26.856 41.7613 26.8591 41.7913 26.8647 41.8205C26.882 41.8224 26.8995 41.8235 26.9174 41.8235H40.7684C41.0331 41.8235 41.2478 41.6089 41.2478 41.3441V39.1264C41.2478 39.0956 41.2446 39.0656 41.239 39.0364C41.2217 39.0345 41.2042 39.0334 41.1863 39.0334H27.3353Z" fill="url(#paint76_linear_2_5017)"/>
<path d="M8.21856 18.501C6.8938 19.3643 5.7635 20.5014 4.90753 21.8317C4.715 22.1308 4.27082 22.13 4.07944 21.8302C3.22832 20.4969 2.10218 19.3557 0.780588 18.4875C0.487205 18.2948 0.487999 17.8567 0.782087 17.6651C2.10685 16.8018 3.23715 15.6647 4.09312 14.3344C4.28556 14.0353 4.72982 14.0361 4.92121 14.3359C5.77232 15.6693 6.89847 16.8105 8.22015 17.6787C8.51344 17.8713 8.51265 18.3094 8.21856 18.501Z" fill="url(#paint77_linear_2_5017)"/>
<path d="M13.4955 6.48446C12.5587 7.09496 11.7593 7.89905 11.154 8.83982C11.0179 9.05132 10.7038 9.05079 10.5684 8.83876C9.96657 7.89587 9.17016 7.08888 8.23557 6.47493C8.02813 6.3387 8.02866 6.02882 8.23663 5.89329C9.17343 5.28279 9.97275 4.4787 10.578 3.53793C10.7142 3.32643 11.0283 3.32696 11.1637 3.53899C11.7655 4.48187 12.5619 5.28887 13.4965 5.90282C13.704 6.03914 13.7034 6.34893 13.4955 6.48446Z" fill="url(#paint78_linear_2_5017)"/>
<path d="M38.9398 8.65732C38.003 9.26782 37.2037 10.0719 36.5984 11.0127C36.4622 11.2242 36.1481 11.2236 36.0128 11.0116C35.4109 10.0687 34.6145 9.26173 33.6799 8.64779C33.4725 8.51155 33.473 8.20167 33.681 8.06614C34.6178 7.45564 35.4171 6.65155 36.0224 5.71078C36.1585 5.49928 36.4727 5.49981 36.608 5.71184C37.2099 6.65473 38.0063 7.46173 38.9409 8.07567C39.1483 8.21199 39.1478 8.52179 38.9398 8.65732Z" fill="url(#paint79_linear_2_5017)"/>
</g>
<defs>
<linearGradient id="paint0_linear_2_5017" x1="37.1444" y1="34.2974" x2="37.1444" y2="38.4158" gradientUnits="userSpaceOnUse">
<stop stop-color="#E4F2FF"/>
<stop offset="1" stop-color="#B2CBFF"/>
</linearGradient>
<linearGradient id="paint1_linear_2_5017" x1="37.1443" y1="34.3571" x2="37.1443" y2="41.2834" gradientUnits="userSpaceOnUse">
<stop stop-color="#3F3CED" stop-opacity="0"/>
<stop offset="0.2796" stop-color="#3C3DE4" stop-opacity="0.28"/>
<stop offset="0.7305" stop-color="#3541CC" stop-opacity="0.731"/>
<stop offset="1" stop-color="#2F43BB"/>
</linearGradient>
<linearGradient id="paint2_linear_2_5017" x1="37.1444" y1="34.3571" x2="37.1444" y2="41.2834" gradientUnits="userSpaceOnUse">
<stop stop-color="#3F3CED" stop-opacity="0"/>
<stop offset="0.2796" stop-color="#3C3DE4" stop-opacity="0.28"/>
<stop offset="0.7305" stop-color="#3541CC" stop-opacity="0.731"/>
<stop offset="1" stop-color="#2F43BB"/>
</linearGradient>
<linearGradient id="paint3_linear_2_5017" x1="37.1273" y1="35.4667" x2="35.485" y2="31.4955" gradientUnits="userSpaceOnUse">
<stop stop-color="white" stop-opacity="0"/>
<stop offset="1" stop-color="white"/>
</linearGradient>
<linearGradient id="paint4_linear_2_5017" x1="37.1444" y1="31.1209" x2="37.1444" y2="35.2393" gradientUnits="userSpaceOnUse">
<stop stop-color="#E4F2FF"/>
<stop offset="1" stop-color="#B2CBFF"/>
</linearGradient>
<linearGradient id="paint5_linear_2_5017" x1="37.1443" y1="31.1806" x2="37.1443" y2="38.1068" gradientUnits="userSpaceOnUse">
<stop stop-color="#3F3CED" stop-opacity="0"/>
<stop offset="0.2796" stop-color="#3C3DE4" stop-opacity="0.28"/>
<stop offset="0.7305" stop-color="#3541CC" stop-opacity="0.731"/>
<stop offset="1" stop-color="#2F43BB"/>
</linearGradient>
<linearGradient id="paint6_linear_2_5017" x1="37.1444" y1="31.1806" x2="37.1444" y2="38.1068" gradientUnits="userSpaceOnUse">
<stop stop-color="#3F3CED" stop-opacity="0"/>
<stop offset="0.2796" stop-color="#3C3DE4" stop-opacity="0.28"/>
<stop offset="0.7305" stop-color="#3541CC" stop-opacity="0.731"/>
<stop offset="1" stop-color="#2F43BB"/>
</linearGradient>
<linearGradient id="paint7_linear_2_5017" x1="37.1273" y1="32.2902" x2="35.485" y2="28.319" gradientUnits="userSpaceOnUse">
<stop stop-color="white" stop-opacity="0"/>
<stop offset="1" stop-color="white"/>
</linearGradient>
<linearGradient id="paint8_linear_2_5017" x1="37.1444" y1="27.9444" x2="37.1444" y2="32.0628" gradientUnits="userSpaceOnUse">
<stop stop-color="#E4F2FF"/>
<stop offset="1" stop-color="#B2CBFF"/>
</linearGradient>
<linearGradient id="paint9_linear_2_5017" x1="37.1443" y1="28.0041" x2="37.1443" y2="34.9303" gradientUnits="userSpaceOnUse">
<stop stop-color="#3F3CED" stop-opacity="0"/>
<stop offset="0.2796" stop-color="#3C3DE4" stop-opacity="0.28"/>
<stop offset="0.7305" stop-color="#3541CC" stop-opacity="0.731"/>
<stop offset="1" stop-color="#2F43BB"/>
</linearGradient>
<linearGradient id="paint10_linear_2_5017" x1="37.1444" y1="28.0041" x2="37.1444" y2="34.9303" gradientUnits="userSpaceOnUse">
<stop stop-color="#3F3CED" stop-opacity="0"/>
<stop offset="0.2796" stop-color="#3C3DE4" stop-opacity="0.28"/>
<stop offset="0.7305" stop-color="#3541CC" stop-opacity="0.731"/>
<stop offset="1" stop-color="#2F43BB"/>
</linearGradient>
<linearGradient id="paint11_linear_2_5017" x1="37.1273" y1="29.1137" x2="35.485" y2="25.1425" gradientUnits="userSpaceOnUse">
<stop stop-color="white" stop-opacity="0"/>
<stop offset="1" stop-color="white"/>
</linearGradient>
<linearGradient id="paint12_linear_2_5017" x1="37.1444" y1="24.7681" x2="37.1444" y2="28.8865" gradientUnits="userSpaceOnUse">
<stop stop-color="#E4F2FF"/>
<stop offset="1" stop-color="#B2CBFF"/>
</linearGradient>
<linearGradient id="paint13_linear_2_5017" x1="37.1443" y1="24.8278" x2="37.1443" y2="31.7541" gradientUnits="userSpaceOnUse">
<stop stop-color="#3F3CED" stop-opacity="0"/>
<stop offset="0.2796" stop-color="#3C3DE4" stop-opacity="0.28"/>
<stop offset="0.7305" stop-color="#3541CC" stop-opacity="0.731"/>
<stop offset="1" stop-color="#2F43BB"/>
</linearGradient>
<linearGradient id="paint14_linear_2_5017" x1="37.1444" y1="24.8278" x2="37.1444" y2="31.7541" gradientUnits="userSpaceOnUse">
<stop stop-color="#3F3CED" stop-opacity="0"/>
<stop offset="0.2796" stop-color="#3C3DE4" stop-opacity="0.28"/>
<stop offset="0.7305" stop-color="#3541CC" stop-opacity="0.731"/>
<stop offset="1" stop-color="#2F43BB"/>
</linearGradient>
<linearGradient id="paint15_linear_2_5017" x1="37.1273" y1="25.9374" x2="35.485" y2="21.9663" gradientUnits="userSpaceOnUse">
<stop stop-color="white" stop-opacity="0"/>
<stop offset="1" stop-color="white"/>
</linearGradient>
<linearGradient id="paint16_linear_2_5017" x1="37.1444" y1="21.5916" x2="37.1444" y2="25.71" gradientUnits="userSpaceOnUse">
<stop stop-color="#E4F2FF"/>
<stop offset="1" stop-color="#B2CBFF"/>
</linearGradient>
<linearGradient id="paint17_linear_2_5017" x1="37.1443" y1="21.6513" x2="37.1443" y2="28.5775" gradientUnits="userSpaceOnUse">
<stop stop-color="#3F3CED" stop-opacity="0"/>
<stop offset="0.2796" stop-color="#3C3DE4" stop-opacity="0.28"/>
<stop offset="0.7305" stop-color="#3541CC" stop-opacity="0.731"/>
<stop offset="1" stop-color="#2F43BB"/>
</linearGradient>
<linearGradient id="paint18_linear_2_5017" x1="37.1444" y1="21.6513" x2="37.1444" y2="28.5775" gradientUnits="userSpaceOnUse">
<stop stop-color="#3F3CED" stop-opacity="0"/>
<stop offset="0.2796" stop-color="#3C3DE4" stop-opacity="0.28"/>
<stop offset="0.7305" stop-color="#3541CC" stop-opacity="0.731"/>
<stop offset="1" stop-color="#2F43BB"/>
</linearGradient>
<linearGradient id="paint19_linear_2_5017" x1="37.1273" y1="22.7609" x2="35.485" y2="18.7898" gradientUnits="userSpaceOnUse">
<stop stop-color="white" stop-opacity="0"/>
<stop offset="1" stop-color="white"/>
</linearGradient>
<linearGradient id="paint20_linear_2_5017" x1="37.1444" y1="18.4151" x2="37.1444" y2="22.5336" gradientUnits="userSpaceOnUse">
<stop stop-color="#E4F2FF"/>
<stop offset="1" stop-color="#B2CBFF"/>
</linearGradient>
<linearGradient id="paint21_linear_2_5017" x1="37.1443" y1="18.4748" x2="37.1443" y2="25.4011" gradientUnits="userSpaceOnUse">
<stop stop-color="#3F3CED" stop-opacity="0"/>
<stop offset="0.2796" stop-color="#3C3DE4" stop-opacity="0.28"/>
<stop offset="0.7305" stop-color="#3541CC" stop-opacity="0.731"/>
<stop offset="1" stop-color="#2F43BB"/>
</linearGradient>
<linearGradient id="paint22_linear_2_5017" x1="37.1444" y1="18.4748" x2="37.1444" y2="25.4011" gradientUnits="userSpaceOnUse">
<stop stop-color="#3F3CED" stop-opacity="0"/>
<stop offset="0.2796" stop-color="#3C3DE4" stop-opacity="0.28"/>
<stop offset="0.7305" stop-color="#3541CC" stop-opacity="0.731"/>
<stop offset="1" stop-color="#2F43BB"/>
</linearGradient>
<linearGradient id="paint23_linear_2_5017" x1="37.1273" y1="19.5844" x2="35.485" y2="15.6133" gradientUnits="userSpaceOnUse">
<stop stop-color="white" stop-opacity="0"/>
<stop offset="1" stop-color="white"/>
</linearGradient>
<linearGradient id="paint24_linear_2_5017" x1="37.1444" y1="15.2386" x2="37.1444" y2="19.357" gradientUnits="userSpaceOnUse">
<stop stop-color="#E4F2FF"/>
<stop offset="1" stop-color="#B2CBFF"/>
</linearGradient>
<linearGradient id="paint25_linear_2_5017" x1="37.1443" y1="15.2983" x2="37.1443" y2="22.2246" gradientUnits="userSpaceOnUse">
<stop stop-color="#3F3CED" stop-opacity="0"/>
<stop offset="0.2796" stop-color="#3C3DE4" stop-opacity="0.28"/>
<stop offset="0.7305" stop-color="#3541CC" stop-opacity="0.731"/>
<stop offset="1" stop-color="#2F43BB"/>
</linearGradient>
<linearGradient id="paint26_linear_2_5017" x1="37.1444" y1="15.2982" x2="37.1444" y2="22.2245" gradientUnits="userSpaceOnUse">
<stop stop-color="#3F3CED" stop-opacity="0"/>
<stop offset="0.2796" stop-color="#3C3DE4" stop-opacity="0.28"/>
<stop offset="0.7305" stop-color="#3541CC" stop-opacity="0.731"/>
<stop offset="1" stop-color="#2F43BB"/>
</linearGradient>
<linearGradient id="paint27_linear_2_5017" x1="37.1273" y1="16.408" x2="35.485" y2="12.4367" gradientUnits="userSpaceOnUse">
<stop stop-color="white" stop-opacity="0"/>
<stop offset="1" stop-color="white"/>
</linearGradient>
<linearGradient id="paint28_linear_2_5017" x1="37.1444" y1="12.0623" x2="37.1444" y2="16.1807" gradientUnits="userSpaceOnUse">
<stop stop-color="#E4F2FF"/>
<stop offset="1" stop-color="#B2CBFF"/>
</linearGradient>
<linearGradient id="paint29_linear_2_5017" x1="37.1443" y1="12.122" x2="37.1443" y2="19.0482" gradientUnits="userSpaceOnUse">
<stop stop-color="#3F3CED" stop-opacity="0"/>
<stop offset="0.2796" stop-color="#3C3DE4" stop-opacity="0.28"/>
<stop offset="0.7305" stop-color="#3541CC" stop-opacity="0.731"/>
<stop offset="1" stop-color="#2F43BB"/>
</linearGradient>
<linearGradient id="paint30_linear_2_5017" x1="37.1444" y1="12.122" x2="37.1444" y2="19.0482" gradientUnits="userSpaceOnUse">
<stop stop-color="#3F3CED" stop-opacity="0"/>
<stop offset="0.2796" stop-color="#3C3DE4" stop-opacity="0.28"/>
<stop offset="0.7305" stop-color="#3541CC" stop-opacity="0.731"/>
<stop offset="1" stop-color="#2F43BB"/>
</linearGradient>
<linearGradient id="paint31_linear_2_5017" x1="37.1273" y1="13.2316" x2="35.485" y2="9.26039" gradientUnits="userSpaceOnUse">
<stop stop-color="white" stop-opacity="0"/>
<stop offset="1" stop-color="white"/>
</linearGradient>
<radialGradient id="paint32_radial_2_5017" cx="0" cy="0" r="1" gradientUnits="userSpaceOnUse" gradientTransform="translate(17.5288 18.2673) scale(29.7862)">
<stop stop-color="#4AB272"/>
<stop offset="0.3386" stop-color="#47B071"/>
<stop offset="0.5502" stop-color="#3FA870"/>
<stop offset="0.727" stop-color="#309B6D"/>
<stop offset="0.8837" stop-color="#1C8869"/>
<stop offset="1" stop-color="#077565"/>
</radialGradient>
<linearGradient id="paint33_linear_2_5017" x1="11.8869" y1="32.0486" x2="10.9327" y2="61.7886" gradientUnits="userSpaceOnUse">
<stop stop-color="#005A01" stop-opacity="0"/>
<stop offset="1" stop-color="#005A01"/>
</linearGradient>
<linearGradient id="paint34_linear_2_5017" x1="20.573" y1="37.9078" x2="24.8143" y2="54.0952" gradientUnits="userSpaceOnUse">
<stop stop-color="#005A01" stop-opacity="0"/>
<stop offset="1" stop-color="#005A01"/>
</linearGradient>
<linearGradient id="paint35_linear_2_5017" x1="33.6958" y1="37.5899" x2="32.1408" y2="57.5237" gradientUnits="userSpaceOnUse">
<stop stop-color="#005A01" stop-opacity="0"/>
<stop offset="1" stop-color="#005A01"/>
</linearGradient>
<linearGradient id="paint36_linear_2_5017" x1="20.7612" y1="25.9498" x2="0.827471" y2="-9.67637" gradientUnits="userSpaceOnUse">
<stop stop-color="#91F27F" stop-opacity="0"/>
<stop offset="1" stop-color="#FFED82"/>
</linearGradient>
<linearGradient id="paint37_linear_2_5017" x1="34.6662" y1="32.8487" x2="9.40643" y2="18.5561" gradientUnits="userSpaceOnUse">
<stop stop-color="#005A01" stop-opacity="0"/>
<stop offset="1" stop-color="#005A01"/>
</linearGradient>
<linearGradient id="paint38_linear_2_5017" x1="19.9358" y1="21.666" x2="33.772" y2="33.5938" gradientUnits="userSpaceOnUse">
<stop stop-color="#FFC738"/>
<stop offset="0.1876" stop-color="#FDBF3C"/>
<stop offset="0.4837" stop-color="#F7A848"/>
<stop offset="0.8493" stop-color="#ED835B"/>
<stop offset="1" stop-color="#E97264"/>
</linearGradient>
<linearGradient id="paint39_linear_2_5017" x1="21.2341" y1="-1.33908" x2="25.8994" y2="8.52175" gradientUnits="userSpaceOnUse">
<stop stop-color="#4AB272"/>
<stop offset="0.3386" stop-color="#47B071"/>
<stop offset="0.5502" stop-color="#3FA870"/>
<stop offset="0.727" stop-color="#309B6D"/>
<stop offset="0.8837" stop-color="#1C8869"/>
<stop offset="1" stop-color="#077565"/>
</linearGradient>
<linearGradient id="paint40_linear_2_5017" x1="22.7665" y1="3.8661" x2="29.0575" y2="13.6209" gradientUnits="userSpaceOnUse">
<stop stop-color="#005A01" stop-opacity="0"/>
<stop offset="1" stop-color="#005A01"/>
</linearGradient>
<linearGradient id="paint41_linear_2_5017" x1="23.0748" y1="0.329229" x2="23.3928" y2="3.45708" gradientUnits="userSpaceOnUse">
<stop stop-color="#005A01" stop-opacity="0"/>
<stop offset="1" stop-color="#005A01"/>
</linearGradient>
<linearGradient id="paint42_linear_2_5017" x1="21.6946" y1="4.17819" x2="9.66012" y2="3.96616" gradientUnits="userSpaceOnUse">
<stop stop-color="#91F27F" stop-opacity="0"/>
<stop offset="1" stop-color="#FFED82"/>
</linearGradient>
<linearGradient id="paint43_linear_2_5017" x1="22.8304" y1="7.73506" x2="22.8304" y2="9.23453" gradientUnits="userSpaceOnUse">
<stop stop-color="#FFC738"/>
<stop offset="0.1876" stop-color="#FDBF3C"/>
<stop offset="0.4837" stop-color="#F7A848"/>
<stop offset="0.8493" stop-color="#ED835B"/>
<stop offset="1" stop-color="#E97264"/>
</linearGradient>
<linearGradient id="paint44_linear_2_5017" x1="21.667" y1="35.5647" x2="12.3364" y2="34.7872" gradientUnits="userSpaceOnUse">
<stop stop-color="#005A01" stop-opacity="0"/>
<stop offset="1" stop-color="#005A01"/>
</linearGradient>
<linearGradient id="paint45_linear_2_5017" x1="7.87119" y1="41.889" x2="7.87119" y2="46.0073" gradientUnits="userSpaceOnUse">
<stop stop-color="#FFD945"/>
<stop offset="0.3043" stop-color="#FFCD3E"/>
<stop offset="0.8558" stop-color="#FFAD2B"/>
<stop offset="1" stop-color="#FFA325"/>
</linearGradient>
<linearGradient id="paint46_linear_2_5017" x1="7.87137" y1="41.9487" x2="7.87137" y2="48.8749" gradientUnits="userSpaceOnUse">
<stop stop-color="#E87264" stop-opacity="0"/>
<stop offset="1" stop-color="#FF7044"/>
</linearGradient>
<linearGradient id="paint47_linear_2_5017" x1="7.8712" y1="41.9487" x2="7.8712" y2="48.8749" gradientUnits="userSpaceOnUse">
<stop stop-color="#E87264" stop-opacity="0"/>
<stop offset="1" stop-color="#FF7044"/>
</linearGradient>
<linearGradient id="paint48_linear_2_5017" x1="7.85407" y1="43.0583" x2="6.21192" y2="39.087" gradientUnits="userSpaceOnUse">
<stop stop-color="#FFD945" stop-opacity="0"/>
<stop offset="1" stop-color="#FBED21"/>
</linearGradient>
<linearGradient id="paint49_linear_2_5017" x1="7.87119" y1="38.7124" x2="7.87119" y2="42.8308" gradientUnits="userSpaceOnUse">
<stop stop-color="#FFD945"/>
<stop offset="0.3043" stop-color="#FFCD3E"/>
<stop offset="0.8558" stop-color="#FFAD2B"/>
<stop offset="1" stop-color="#FFA325"/>
</linearGradient>
<linearGradient id="paint50_linear_2_5017" x1="7.87137" y1="38.7723" x2="7.87137" y2="45.6985" gradientUnits="userSpaceOnUse">
<stop stop-color="#E87264" stop-opacity="0"/>
<stop offset="1" stop-color="#FF7044"/>
</linearGradient>
<linearGradient id="paint51_linear_2_5017" x1="7.8712" y1="38.7722" x2="7.8712" y2="45.6984" gradientUnits="userSpaceOnUse">
<stop stop-color="#E87264" stop-opacity="0"/>
<stop offset="1" stop-color="#FF7044"/>
</linearGradient>
<linearGradient id="paint52_linear_2_5017" x1="7.85407" y1="39.8817" x2="6.21191" y2="35.9106" gradientUnits="userSpaceOnUse">
<stop stop-color="#FFD945" stop-opacity="0"/>
<stop offset="1" stop-color="#FBED21"/>
</linearGradient>
<linearGradient id="paint53_linear_2_5017" x1="7.87119" y1="35.5362" x2="7.87119" y2="39.6546" gradientUnits="userSpaceOnUse">
<stop stop-color="#FFD945"/>
<stop offset="0.3043" stop-color="#FFCD3E"/>
<stop offset="0.8558" stop-color="#FFAD2B"/>
<stop offset="1" stop-color="#FFA325"/>
</linearGradient>
<linearGradient id="paint54_linear_2_5017" x1="7.87137" y1="35.5959" x2="7.87137" y2="42.5221" gradientUnits="userSpaceOnUse">
<stop stop-color="#E87264" stop-opacity="0"/>
<stop offset="1" stop-color="#FF7044"/>
</linearGradient>
<linearGradient id="paint55_linear_2_5017" x1="7.8712" y1="35.5959" x2="7.8712" y2="42.5221" gradientUnits="userSpaceOnUse">
<stop stop-color="#E87264" stop-opacity="0"/>
<stop offset="1" stop-color="#FF7044"/>
</linearGradient>
<linearGradient id="paint56_linear_2_5017" x1="7.85407" y1="36.7055" x2="6.21191" y2="32.7343" gradientUnits="userSpaceOnUse">
<stop stop-color="#FFD945" stop-opacity="0"/>
<stop offset="1" stop-color="#FBED21"/>
</linearGradient>
<linearGradient id="paint57_linear_2_5017" x1="7.87119" y1="32.3597" x2="7.87119" y2="36.4781" gradientUnits="userSpaceOnUse">
<stop stop-color="#FFD945"/>
<stop offset="0.3043" stop-color="#FFCD3E"/>
<stop offset="0.8558" stop-color="#FFAD2B"/>
<stop offset="1" stop-color="#FFA325"/>
</linearGradient>
<linearGradient id="paint58_linear_2_5017" x1="7.87137" y1="32.4192" x2="7.87137" y2="39.3456" gradientUnits="userSpaceOnUse">
<stop stop-color="#E87264" stop-opacity="0"/>
<stop offset="1" stop-color="#FF7044"/>
</linearGradient>
<linearGradient id="paint59_linear_2_5017" x1="7.8712" y1="32.4194" x2="7.8712" y2="39.3457" gradientUnits="userSpaceOnUse">
<stop stop-color="#E87264" stop-opacity="0"/>
<stop offset="1" stop-color="#FF7044"/>
</linearGradient>
<linearGradient id="paint60_linear_2_5017" x1="7.85407" y1="33.529" x2="6.21192" y2="29.5578" gradientUnits="userSpaceOnUse">
<stop stop-color="#FFD945" stop-opacity="0"/>
<stop offset="1" stop-color="#FBED21"/>
</linearGradient>
<linearGradient id="paint61_linear_2_5017" x1="7.87119" y1="29.1831" x2="7.87119" y2="33.3015" gradientUnits="userSpaceOnUse">
<stop stop-color="#FFD945"/>
<stop offset="0.3043" stop-color="#FFCD3E"/>
<stop offset="0.8558" stop-color="#FFAD2B"/>
<stop offset="1" stop-color="#FFA325"/>
</linearGradient>
<linearGradient id="paint62_linear_2_5017" x1="7.87137" y1="29.2428" x2="7.87137" y2="36.1691" gradientUnits="userSpaceOnUse">
<stop stop-color="#E87264" stop-opacity="0"/>
<stop offset="1" stop-color="#FF7044"/>
</linearGradient>
<linearGradient id="paint63_linear_2_5017" x1="7.8712" y1="29.2428" x2="7.8712" y2="36.1691" gradientUnits="userSpaceOnUse">
<stop stop-color="#E87264" stop-opacity="0"/>
<stop offset="1" stop-color="#FF7044"/>
</linearGradient>
<linearGradient id="paint64_linear_2_5017" x1="7.85407" y1="30.3525" x2="6.21191" y2="26.3813" gradientUnits="userSpaceOnUse">
<stop stop-color="#FFD945" stop-opacity="0"/>
<stop offset="1" stop-color="#FBED21"/>
</linearGradient>
<linearGradient id="paint65_linear_2_5017" x1="7.87119" y1="26.0066" x2="7.87119" y2="30.125" gradientUnits="userSpaceOnUse">
<stop stop-color="#FFD945"/>
<stop offset="0.3043" stop-color="#FFCD3E"/>
<stop offset="0.8558" stop-color="#FFAD2B"/>
<stop offset="1" stop-color="#FFA325"/>
</linearGradient>
<linearGradient id="paint66_linear_2_5017" x1="7.87137" y1="26.0664" x2="7.87137" y2="32.9927" gradientUnits="userSpaceOnUse">
<stop stop-color="#E87264" stop-opacity="0"/>
<stop offset="1" stop-color="#FF7044"/>
</linearGradient>
<linearGradient id="paint67_linear_2_5017" x1="7.8712" y1="26.0663" x2="7.8712" y2="32.9926" gradientUnits="userSpaceOnUse">
<stop stop-color="#E87264" stop-opacity="0"/>
<stop offset="1" stop-color="#FF7044"/>
</linearGradient>
<linearGradient id="paint68_linear_2_5017" x1="7.85407" y1="27.1759" x2="6.21191" y2="23.2047" gradientUnits="userSpaceOnUse">
<stop stop-color="#FFD945" stop-opacity="0"/>
<stop offset="1" stop-color="#FBED21"/>
</linearGradient>
<linearGradient id="paint69_linear_2_5017" x1="33.8429" y1="41.889" x2="33.8429" y2="46.0073" gradientUnits="userSpaceOnUse">
<stop stop-color="#FFD945"/>
<stop offset="0.3043" stop-color="#FFCD3E"/>
<stop offset="0.8558" stop-color="#FFAD2B"/>
<stop offset="1" stop-color="#FFA325"/>
</linearGradient>
<linearGradient id="paint70_linear_2_5017" x1="33.8428" y1="41.9487" x2="33.8428" y2="48.8749" gradientUnits="userSpaceOnUse">
<stop stop-color="#E87264" stop-opacity="0"/>
<stop offset="1" stop-color="#FF7044"/>
</linearGradient>
<linearGradient id="paint71_linear_2_5017" x1="33.8429" y1="41.9487" x2="33.8429" y2="48.8749" gradientUnits="userSpaceOnUse">
<stop stop-color="#E87264" stop-opacity="0"/>
<stop offset="1" stop-color="#FF7044"/>
</linearGradient>
<linearGradient id="paint72_linear_2_5017" x1="33.8258" y1="43.0583" x2="32.1836" y2="39.087" gradientUnits="userSpaceOnUse">
<stop stop-color="#FFD945" stop-opacity="0"/>
<stop offset="1" stop-color="#FBED21"/>
</linearGradient>
<linearGradient id="paint73_linear_2_5017" x1="33.8429" y1="38.7124" x2="33.8429" y2="42.8308" gradientUnits="userSpaceOnUse">
<stop stop-color="#FFD945"/>
<stop offset="0.3043" stop-color="#FFCD3E"/>
<stop offset="0.8558" stop-color="#FFAD2B"/>
<stop offset="1" stop-color="#FFA325"/>
</linearGradient>
<linearGradient id="paint74_linear_2_5017" x1="33.8428" y1="38.7723" x2="33.8428" y2="45.6985" gradientUnits="userSpaceOnUse">
<stop stop-color="#E87264" stop-opacity="0"/>
<stop offset="1" stop-color="#FF7044"/>
</linearGradient>
<linearGradient id="paint75_linear_2_5017" x1="33.8429" y1="38.7722" x2="33.8429" y2="45.6984" gradientUnits="userSpaceOnUse">
<stop stop-color="#E87264" stop-opacity="0"/>
<stop offset="1" stop-color="#FF7044"/>
</linearGradient>
<linearGradient id="paint76_linear_2_5017" x1="33.8258" y1="39.8817" x2="32.1836" y2="35.9106" gradientUnits="userSpaceOnUse">
<stop stop-color="#FFD945" stop-opacity="0"/>
<stop offset="1" stop-color="#FBED21"/>
</linearGradient>
<linearGradient id="paint77_linear_2_5017" x1="3.21269" y1="16.3647" x2="7.38072" y2="21.9453" gradientUnits="userSpaceOnUse">
<stop stop-color="#FFD945"/>
<stop offset="0.3043" stop-color="#FFCD3E"/>
<stop offset="0.8558" stop-color="#FFAD2B"/>
<stop offset="1" stop-color="#FFA325"/>
</linearGradient>
<linearGradient id="paint78_linear_2_5017" x1="9.9568" y1="4.97524" x2="12.9043" y2="8.92165" gradientUnits="userSpaceOnUse">
<stop stop-color="#FFD945"/>
<stop offset="0.3043" stop-color="#FFCD3E"/>
<stop offset="0.8558" stop-color="#FFAD2B"/>
<stop offset="1" stop-color="#FFA325"/>
</linearGradient>
<linearGradient id="paint79_linear_2_5017" x1="35.4007" y1="7.1532" x2="38.3482" y2="11.0996" gradientUnits="userSpaceOnUse">
<stop stop-color="#FFD945"/>
<stop offset="0.3043" stop-color="#FFCD3E"/>
<stop offset="0.8558" stop-color="#FFAD2B"/>
<stop offset="1" stop-color="#FFA325"/>
</linearGradient>
<clipPath id="clip0_2_5017">
<rect width="45" height="45" fill="white" transform="translate(0.0078125)"/>
</clipPath>
</defs>
</svg>
